<?xml version="1.0" encoding="UTF-8" standalone="no"?><!DOCTYPE svg PUBLIC "-//W3C//DTD SVG 1.1//EN" "http://www.w3.org/Graphics/SVG/1.1/DTD/svg11.dtd"><svg width="100%" height="100%" viewBox="0 0 834 834" version="1.1" xmlns="http://www.w3.org/2000/svg" xmlns:xlink="http://www.w3.org/1999/xlink" xml:space="preserve" xmlns:serif="http://www.serif.com/" style="fill-rule:evenodd;clip-rule:evenodd;stroke-linejoin:round;stroke-miterlimit:2;"><g id="XMLID_95_"><path id="XMLID_816_" d="M283.75,539.167l245.833,-0c20,-0 36.667,-16.25 36.667,-36.667l0,-140.833c0,-20 -16.25,-36.667 -36.667,-36.667l-245.833,0c-20,0 -36.667,16.25 -36.667,36.667l0,140.833c0,20.417 16.667,36.667 36.667,36.667Zm-19.583,-177.5c-0,-10.834 8.75,-19.584 19.583,-19.584l245.833,0c10.834,0 19.584,8.75 19.584,19.584l-0,140.833c-0,10.833 -8.75,19.583 -19.584,19.583l-245.833,0c-10.833,0 -19.583,-8.75 -19.583,-19.583l-0,-140.833Z" style="fill:#b10dc9;fill-rule:nonzero;"/><path id="XMLID_781_" d="M565.833,548.75l-317.916,0c-13.75,0 -25,11.25 -25,25l-0,5.833c-0,13.75 11.25,25 25,25l318.333,0c13.75,0 25,-11.25 25,-25l0,-5.833c-0.417,-13.75 -11.667,-25 -25.417,-25Zm8.334,30.833c-0,4.584 -3.75,7.917 -7.917,7.917l-318.333,0c-4.584,0 -7.917,-3.75 -7.917,-7.917l0,-5.833c0,-4.583 3.75,-7.917 7.917,-7.917l318.333,0c4.583,0 7.917,3.75 7.917,7.917l-0,5.833Z" style="fill:#b10dc9;fill-rule:nonzero;"/><g id="XMLID_662_" opacity="0.3"><path id="XMLID_663_" d="M505.417,162.5c-85.834,0 -155.417,70 -155.417,155.833l0,6.667l180,0c3.75,0 7.5,0.417 10.833,1.667l31.667,-0c-0.417,17.083 -2.5,33.333 -5.833,48.333l-0,51.25c3.333,-6.25 6.25,-12.917 8.75,-20c14.166,-1.667 28.75,-4.167 42.916,-7.083c-13.333,18.333 -31.25,33.333 -51.666,43.333l-0,18.75c55.833,-23.75 95,-79.167 95,-143.333c-0.417,-85.417 -70,-155.417 -156.25,-155.417Zm-83.75,147.5l-54.584,0c1.25,-18.75 5.834,-36.667 13.75,-52.5c16.25,-3.75 32.917,-7.083 49.167,-9.167c-4.583,18.334 -7.5,39.167 -8.333,61.667Zm-28.334,-72.5c16.25,-22.5 39.584,-40.417 66.25,-49.583c-9.166,11.25 -17.083,25.833 -23.333,42.5c-14.583,1.666 -28.75,3.75 -42.917,7.083Zm103.75,72.5l-58.333,0c0.833,-23.333 4.167,-45 10,-64.167c15.833,-1.666 32.083,-2.5 48.333,-2.916l0,67.083Zm0,-84.167c-14.166,0.417 -27.916,0.834 -42.083,2.084c10.417,-25 25.417,-42.5 42.083,-47.084l0,45Zm17.084,-45c16.666,4.584 31.25,22.084 42.083,47.084c-13.75,-1.25 -27.917,-2.084 -42.083,-2.084l-0,-45Zm-0,129.167l-0,-67.083c16.25,0.416 32.083,1.25 48.333,2.916c5.833,19.167 9.583,40.834 10,64.167l-58.333,0Zm61.25,-80c-6.25,-17.083 -14.167,-31.667 -23.334,-42.5c26.667,9.583 50,27.083 66.25,49.583c-14.583,-2.916 -28.75,-5 -42.916,-7.083Zm54.583,27.5c7.917,15.833 12.917,33.75 13.75,52.5l-54.583,0c-0.417,-22.083 -3.75,-43.333 -8.75,-61.667c17.083,2.084 33.333,5 49.583,9.167Zm0,122.083c-16.25,3.75 -32.917,7.084 -49.167,9.167c5,-18.75 7.917,-39.583 8.75,-61.667l54.584,0c-1.25,18.334 -6.25,36.25 -14.167,52.5Z" style="fill:#585763;fill-rule:nonzero;"/></g></g></svg>