<?xml version="1.0" encoding="UTF-8" standalone="no"?><!DOCTYPE svg PUBLIC "-//W3C//DTD SVG 1.1//EN" "http://www.w3.org/Graphics/SVG/1.1/DTD/svg11.dtd"><svg width="100%" height="100%" viewBox="0 0 834 834" version="1.1" xmlns="http://www.w3.org/2000/svg" xmlns:xlink="http://www.w3.org/1999/xlink" xml:space="preserve" xmlns:serif="http://www.serif.com/" style="fill-rule:evenodd;clip-rule:evenodd;stroke-linejoin:round;stroke-miterlimit:2;"><g id="XMLID_67_"><g id="XMLID_2293_" opacity="0.3"><path id="XMLID_2299_" d="M610.833,531.25l-388.333,0c-30.417,0 -55.417,-25 -55.417,-55.417l0,-221.666c0,-30.417 25,-55.417 55.417,-55.417l387.917,0c30.416,0 55.416,25 55.416,55.417l0,222.083c0,30.417 -24.583,55 -55,55Zm-388.333,-310.417c-18.333,0 -33.333,15 -33.333,33.334l-0,222.083c-0,18.333 15,33.333 33.333,33.333l387.917,0c18.333,0 33.333,-15 33.333,-33.333l0,-222.083c0,-18.334 -15,-33.334 -33.333,-33.334l-387.917,0Z" style="fill:#585763;fill-rule:nonzero;"/></g><g id="XMLID_2284_" opacity="0.3"><path id="XMLID_2290_" d="M671.667,634.583l-510,0c-18.334,0 -33.334,-15 -33.334,-33.333l0,-17.5c0,-18.333 15,-33.333 33.334,-33.333l509.583,-0c18.333,-0 33.333,15 33.333,33.333l0,17.5c0,18.75 -14.583,33.333 -32.916,33.333Zm-510,-61.666c-6.25,-0 -11.25,5 -11.25,11.25l-0,17.5c-0,6.25 5,11.25 11.25,11.25l509.583,-0c6.25,-0 11.25,-5 11.25,-11.25l0,-17.5c0,-6.25 -5,-11.25 -11.25,-11.25l-509.583,-0Z" style="fill:#585763;fill-rule:nonzero;"/></g><path id="XMLID_2281_" d="M505.833,455l-178.333,0c-26.667,0 -48.333,-21.667 -48.333,-48.333c-0,-20 12.083,-37.5 30,-45c1.25,-24.167 20.416,-43.75 44.583,-45.417c10.417,-24.583 35.417,-41.25 62.917,-41.25c27.5,-0 52.5,16.667 63.333,41.25c24.167,2.083 43.333,21.25 44.583,45.417c17.5,7.5 29.584,25 29.584,44.583c0.416,27.083 -21.25,48.75 -48.334,48.75Zm-148.75,-116.667c-14.583,0 -26.25,11.667 -26.25,26.25c0,1.25 0,2.084 0.417,3.75c0.833,5.834 -2.917,11.25 -8.75,12.5c-12.5,2.5 -21.25,13.334 -21.25,25.834c0,14.583 11.667,26.25 26.25,26.25l178.75,-0c14.583,-0 26.25,-11.667 26.25,-26.25c0,-12.5 -8.75,-23.334 -21.25,-25.834c-5.833,-1.25 -9.583,-6.666 -8.75,-12.5c-0,-1.25 0.417,-2.5 0.417,-3.75c-0,-14.583 -11.667,-26.25 -26.25,-26.25l-2.917,0c-5.417,0.417 -10.417,-2.916 -11.667,-7.916c-5.833,-19.584 -24.583,-33.75 -45,-33.75c-20.833,-0 -39.166,13.75 -45,33.75c-1.666,5 -6.25,8.333 -11.666,7.916l-3.334,0Z" style="fill:#b10dc9;fill-rule:nonzero;"/></g></svg>