<?xml version="1.0" encoding="UTF-8" standalone="no"?><!DOCTYPE svg PUBLIC "-//W3C//DTD SVG 1.1//EN" "http://www.w3.org/Graphics/SVG/1.1/DTD/svg11.dtd"><svg width="100%" height="100%" viewBox="0 0 834 834" version="1.1" xmlns="http://www.w3.org/2000/svg" xmlns:xlink="http://www.w3.org/1999/xlink" xml:space="preserve" xmlns:serif="http://www.serif.com/" style="fill-rule:evenodd;clip-rule:evenodd;stroke-linejoin:round;stroke-miterlimit:2;"><g id="XMLID_27_"><path id="XMLID_1509_" d="M626.25,501.25l-42.917,-42.917c-34.583,-34.583 -90.833,-34.583 -125.416,0c-34.584,34.584 -34.584,90.834 -0,125.417l42.5,42.5c17.083,17.5 40,25.833 62.916,25.833c22.917,0 45.417,-8.75 62.917,-25.833c34.583,-34.167 34.583,-90.417 0,-125Zm-105.417,-50.833c15.417,-0 30.417,5 42.917,14.583l-42.917,43.333l-42.916,-42.916c12.5,-10 27.5,-15 42.916,-15Zm-55.833,27.5l42.917,42.916l-42.917,42.917c-19.583,-25 -19.583,-60.417 0,-85.833Zm148.333,135.833c-27.5,27.5 -72.5,27.5 -100,0l-36.25,-36.25l100,-100l36.25,36.25c27.5,27.5 27.5,72.5 0,100Z" style="fill:#b10dc9;fill-rule:nonzero;"/><g id="XMLID_977_" opacity="0.3"><path id="XMLID_981_" d="M500.833,626.667l-6.666,-6.667c-6.25,2.5 -12.917,4.583 -19.584,6.25c4.167,-4.167 8.334,-8.75 12.084,-13.75l-13.334,-13.333c-14.166,18.75 -30.416,30.833 -47.916,33.75l-0,-78.334c4.166,0 8.75,0 12.916,-0.416c-2.5,-5.834 -4.166,-11.667 -5,-17.917l-7.916,-0l-0,-111.25l97.916,0c0,2.083 0,4.583 -0.416,6.667c6.25,-0 12.083,0.833 17.916,2.5c0,-2.917 0.417,-5.834 0.417,-8.75l92.083,-0c-0.833,24.166 -5.833,47.083 -14.166,68.333l6.666,6.667c2.5,2.5 5,5 7.084,7.916c12.083,-28.333 18.75,-59.583 18.75,-92.083c-0,-129.583 -105.417,-235.417 -235.417,-235.417c-130,0 -235,106.25 -235,236.25c0,130 105.417,235.417 235.417,235.417c32.5,0 63.75,-6.667 92.083,-18.75c-2.917,-2.5 -5.417,-4.583 -7.917,-7.083Zm108.75,-309.584c14.167,27.5 22.917,58.334 24.167,90.834l-92.083,-0c-0.834,-37.5 -5.834,-72.917 -14.584,-103.75c27.5,3.75 55,8.75 82.084,15.416l0.416,-2.5Zm-11.25,-18.75c-25.833,-5.833 -51.666,-10 -77.916,-13.333c-11.667,-32.917 -27.5,-59.167 -46.25,-77.5c52.083,14.583 95.833,47.5 124.166,90.833Zm-172.5,-97.5c29.584,5.417 56.25,36.667 74.584,82.084c-24.584,-2.5 -49.584,-3.75 -74.584,-4.167l0,-77.917Zm0,96.25c27.084,0.417 54.167,2.084 81.25,5c10,31.25 15.834,67.5 16.667,106.25l-97.917,0l0,-111.25Zm-67.083,-89.583c-18.75,17.917 -34.583,44.583 -46.25,77.5c-26.25,3.333 -52.083,7.917 -77.917,13.333c28.75,-43.333 72.5,-76.25 124.167,-90.833Zm-135,109.583l0.417,2.084c27.083,-6.667 54.583,-11.667 82.083,-15.417c-8.75,30.833 -14.167,65.833 -14.583,103.75l-92.084,0c1.25,-32.083 10,-62.917 24.167,-90.417Zm-0,199.584c-14.167,-27.5 -22.917,-58.334 -24.167,-90.834l92.084,0c0.833,37.5 5.833,72.917 14.583,103.75c-27.5,-3.75 -55,-8.75 -82.083,-15.416l-0.417,2.5Zm10.833,18.75c25.834,5.833 51.667,10 77.917,13.333c11.667,32.917 27.5,59.167 46.25,77.5c-51.667,-14.167 -95.417,-47.083 -124.167,-90.833Zm172.917,97.916c-29.583,-5.416 -56.25,-36.666 -74.583,-82.083c24.583,2.5 49.583,3.75 74.583,4.167l0,77.916Zm-0,-96.25c-27.083,-0.416 -54.167,-2.083 -81.25,-5c-10,-31.25 -15.833,-67.5 -16.667,-106.25l97.917,0l-0,111.25Zm-0,-129.166l-97.917,-0c0.834,-38.75 7.084,-75 16.667,-106.25c27.083,-2.917 54.167,-4.584 81.25,-5l-0,111.25Zm-0,-129.167c-25,0.417 -49.583,1.667 -74.167,4.167c17.917,-45.834 44.584,-77.084 74.167,-82.084l-0,77.917Z" style="fill:#585763;fill-rule:nonzero;"/></g></g></svg>