<?xml version="1.0" encoding="UTF-8" standalone="no"?><!DOCTYPE svg PUBLIC "-//W3C//DTD SVG 1.1//EN" "http://www.w3.org/Graphics/SVG/1.1/DTD/svg11.dtd"><svg width="100%" height="100%" viewBox="0 0 688 499" version="1.1" xmlns="http://www.w3.org/2000/svg" xmlns:xlink="http://www.w3.org/1999/xlink" xml:space="preserve" xmlns:serif="http://www.serif.com/" style="fill-rule:evenodd;clip-rule:evenodd;stroke-linejoin:round;stroke-miterlimit:2;"><path d="M239.583,317.5c0,5 -3.333,6.667 -5.833,6.667c-3.333,-0 -5,-2.5 -5,-5.834l0,-20.416l-4.583,-0l-0,22.5c-0,5 2.916,7.5 7.916,7.5c2.917,-0 5.834,-1.25 7.5,-4.167l0,3.75l5,0c0,-2.083 -0.416,-4.167 -0.416,-6.25l-0,-23.333l-4.584,-0l0,19.583Zm34.167,10l0,-20.417c0,-5.833 -1.667,-9.583 -7.917,-9.583c-3.75,0 -5.833,1.25 -7.916,4.167l-0.417,-0l0,-3.75l-5,-0c-0,2.083 0.417,4.166 0.417,6.25l-0,23.333l5,0l-0,-17.5c-0,-4.167 0.833,-8.75 5.833,-8.75c4.167,0 5,2.5 5,5.833l-0,20.417l5,0Zm23.75,-16.25c0,5.833 0,12.5 -5.417,12.5c-5.833,0 -5.833,-6.25 -5.833,-10.833c0,-7.917 0.833,-12.084 5.833,-12.084c5,0.417 5.417,6.667 5.417,10.417m0,-10.417c-1.667,-2.5 -3.75,-3.75 -6.667,-3.75c-9.583,0 -9.583,8.334 -9.583,15.834c0,12.916 4.583,15 9.583,15c2.917,-0 5,-1.25 6.667,-4.167l0,3.333l4.583,0l0,-41.666l-4.583,-0l0,15.416Zm30,26.667l-0,-19.583l15,-0l-0,-4.584l-15,0l-0,-13.333l15.417,0l-0,-4.583l-20.834,-0l0,42.083m35.834,-3.333c-5,-0 -6.25,-3.334 -6.25,-12.917c-0,-7.917 2.5,-10 6.25,-10c3.75,0 6.25,1.667 6.25,10c-0,9.167 -1.25,12.917 -6.25,12.917m-0,3.75c6.25,-0 11.25,-1.667 11.25,-15c-0,-8.75 -0.834,-15.834 -11.25,-15.834c-10,0 -11.25,7.084 -11.25,15.834c-0,13.333 5,15 11.25,15m23.333,-30l-4.583,-0l-0,29.583l4.583,0l-0,-17.5c-0,-4.167 1.25,-7.917 6.667,-7.917c0.833,0 1.666,0 2.5,0.417l-0,-5c-4.584,0 -7.084,0.417 -9.167,5l-0,-4.583Zm32.917,21.25c-0,-9.167 -14.584,-8.75 -14.584,-14.167c0,-2.5 2.084,-4.167 4.584,-4.167c2.916,0 4.583,1.667 4.583,4.584l5.417,-0c0.416,-5.834 -4.167,-8.334 -9.167,-8.334c-8.333,0 -10,5 -10,7.917c-0,8.75 14.583,8.75 14.583,14.167c0,2.916 -2.083,4.583 -5,4.583c-5,0 -5,-4.167 -5,-5.833l-5.416,-0c-0,6.666 3.75,9.583 10,9.583c5.833,0.417 10,-2.083 10,-8.333m26.666,-11.667c0.417,-6.667 -3.333,-10 -9.166,-10c-10,0 -11.25,7.083 -11.25,15.833c-0,12.917 5,15 11.25,15c3.333,0 9.583,-2.083 9.166,-10.416l-5,-0c0,5.416 -3.333,6.666 -4.166,6.666c-5,0 -6.25,-3.333 -6.25,-12.916c-0,-7.917 2.5,-10 6.25,-10c1.666,-0 4.166,1.25 4.166,6.25l5,-0.417Zm28.75,20l0,-20.833c0,-6.667 -2.916,-9.167 -7.916,-9.167c-3.75,0 -6.25,0.833 -7.917,4.167l-0.417,-0l0,-16.25l-4.583,-0l-0,42.083l4.583,0l0,-17.5c0,-5 1.25,-8.75 5.834,-8.75c4.166,0 5.416,2.5 5.416,6.25l0,20l5,0Zm24.167,-10c-0,5 -3.333,6.667 -5.833,6.667c-3.334,-0 -5,-2.5 -5,-5.834l-0,-20.416l-4.584,-0l0,22.5c0,5 2.917,7.5 7.917,7.5c2.917,-0 5.833,-1.25 7.5,-4.167l0,3.75l5,0c0,-2.083 -0.417,-4.167 -0.417,-6.25l0,-23.333l-4.583,-0l0,19.583Zm34.167,10l-0,-20.417c-0,-5.833 -1.667,-9.583 -7.917,-9.583c-3.75,0 -5.833,1.25 -7.917,4.167l-0.416,-0l-0,-3.75l-5,-0c-0,2.083 0.416,4.166 0.416,6.25l0,23.333l4.584,0l-0,-17.5c-0,-4.167 0.833,-8.75 5.833,-8.75c4.167,0 5,2.5 5,5.833l0,20.417l5.417,0Zm23.333,-15c0,4.167 0,10.833 -5.417,10.833c-3.75,0 -5.833,-2.083 -5.833,-11.666c0,-3.75 0,-10.417 5.417,-10.417c6.25,0 5.833,6.667 5.833,11.25m0,-10.833c-1.667,-2.917 -3.75,-4.167 -7.083,-4.167c-2.5,0 -9.167,0.833 -9.167,14.583c0,8.75 1.667,15.834 9.583,15.834c2.5,-0 5.417,-1.25 6.667,-3.75l0,6.25c0,2.916 -1.667,5 -5,5c-2.5,-0 -4.583,-1.667 -4.583,-4.167l-5.417,0c-0.417,5.417 4.167,7.917 8.75,7.917c6.667,-0 10.833,-1.667 10.833,-8.334l0,-32.5l-4.583,0l0,3.334Zm-329.167,-66.25l0,3.75l4.584,-0l-0,25.833l4.583,0l0,-25.833l5.833,-0l0,-3.75l-5.833,-0l0,-5c0,-2.5 0.833,-4.584 5.833,-4.167l0,-3.333l-2.083,-0c-4.167,-0 -8.333,1.25 -8.333,7.083l-0,5.833l-4.584,0l0,-0.416Zm27.917,-10.834l-5.417,0l0,6.25l5.417,0l0,-6.25Zm10,0l-5.417,0l0,6.25l5.417,0l0,-6.25Zm-2.5,30.417c0,5 -3.333,6.667 -5.833,6.667c-3.334,-0 -5,-2.5 -5,-5.834l-0,-20.416l-4.584,-0l0,22.5c0,5 2.917,7.5 7.917,7.5c2.917,-0 5.833,-1.25 7.5,-4.167l0,3.75l5,0c0,-2.083 -0.417,-4.167 -0.417,-6.25l0,-23.333l-4.583,-0l0,19.583Zm18.333,-19.583l-4.583,-0l0,29.583l4.583,0l0,-17.5c0,-4.167 1.25,-7.917 6.667,-7.917c0.833,0 1.667,0 2.5,0.417l0,-5c-4.583,0 -7.083,0.417 -9.167,5l0,-4.583Zm29.167,9.583l5.833,0c5.417,0 9.584,1.25 9.584,7.917c-0,2.916 -2.084,7.083 -7.917,7.083l-7.5,0l0,-15Zm0,-17.5l7.5,0c4.583,0 6.667,2.917 6.667,6.25c-0,4.167 -2.084,6.667 -6.25,6.667l-7.917,-0l-0,-12.917Zm8.333,37.5c4.584,0 12.5,-1.25 12.5,-11.667c0,-5.833 -2.5,-9.583 -8.75,-10l0,-0.416c5.417,-1.25 7.084,-4.584 7.084,-10c-0,-0.834 -0.417,-3.334 -1.667,-5.417c-1.667,-2.5 -3.75,-4.167 -9.583,-4.167l-13.75,0l-0,42.084l14.166,-0.417Zm25,-29.583l-4.583,-0l0,29.583l4.583,-0l0,-29.583Zm-5,-7.5l5.417,-0l-0,-5l-5.417,-0l0,5Zm13.75,-5l4.584,-0l-0,42.083l-4.584,-0l0,-42.083Zm28.75,25.833c0,5.833 0,12.5 -5.416,12.5c-5.834,0 -5.834,-6.25 -5.834,-10.833c0,-7.917 0.834,-12.084 5.834,-12.084c5,0.417 5.416,6.667 5.416,10.417m0,-10.417c-1.666,-2.5 -3.75,-3.75 -6.666,-3.75c-9.584,0 -9.584,8.334 -9.584,15.834c0,12.916 4.584,15 9.584,15c2.916,-0 5,-1.25 6.666,-4.167l0,3.333l4.584,0l-0,-41.666l-4.584,-0l0,15.416Zm29.167,16.667c-0,5 -3.333,6.667 -5.833,6.667c-3.334,-0 -5,-2.5 -5,-5.834l-0,-20.416l-5,-0l-0,22.5c-0,5 2.916,7.5 7.916,7.5c2.917,-0 5.834,-1.25 7.5,-4.167l0,3.75l5,-0c0,-2.083 -0.416,-4.167 -0.416,-6.25l-0,-23.333l-4.584,-0l0.417,19.583Zm34.167,10l-0,-20.417c-0,-5.833 -1.667,-9.583 -7.917,-9.583c-3.75,-0 -5.833,1.25 -7.917,4.167l-0.416,-0l-0,-3.75l-5,-0c-0,2.083 0.416,4.166 0.416,6.25l0,23.333l4.584,-0l-0,-17.5c-0,-4.167 0.833,-8.75 5.833,-8.75c4.167,-0 5,2.5 5,5.833l-0,20.417l5.417,-0Zm23.75,-15c-0,4.167 -0,10.833 -5.417,10.833c-3.75,0 -5.833,-2.083 -5.833,-11.666c-0,-3.75 -0,-10.417 5.416,-10.417c6.25,-0 5.834,6.667 5.834,11.25m-0,-10.833c-1.667,-2.917 -3.75,-4.167 -7.084,-4.167c-2.5,-0 -9.166,0.833 -9.166,14.583c-0,8.75 1.666,15.834 9.583,15.834c2.5,-0 5.417,-1.25 6.667,-3.75l-0,6.25c-0,2.916 -1.667,5 -5,5c-2.5,-0 -4.584,-1.667 -4.584,-4.167l-5.416,-0c-0.417,5.417 4.166,7.917 8.75,7.917c6.666,-0 10.833,-1.667 10.833,-8.334l-0,-32.5l-4.583,0l-0,3.334Zm-233.334,-56.667l5.834,-0c5.416,-0 9.583,1.25 9.583,7.917c-0,2.916 -2.083,7.083 -7.917,7.083l-7.5,-0l0,-15Zm0,-17.5l7.5,-0c4.584,-0 6.667,2.917 6.667,6.25c-0,4.167 -2.083,6.667 -6.25,6.667l-7.917,-0l0,-12.917Zm8.334,37.5c5,-0 12.5,-1.25 12.5,-11.667c-0,-5.833 -2.5,-9.583 -8.75,-10l-0,-0.416c5.416,-1.25 7.083,-4.584 7.083,-10c-0,-0.834 -0.417,-3.334 -1.667,-5.417c-1.666,-2.5 -3.75,-4.167 -9.583,-4.167l-13.75,0l-0,42.084l14.167,-0.417Zm35,-10c-0,5 -3.334,6.667 -5.834,6.667c-3.333,-0 -5,-2.5 -5,-5.834l0,-20.416l-4.583,-0l-0,22.5c-0,5 2.917,7.5 7.917,7.5c2.916,-0 5.833,-1.25 7.5,-4.167l-0,3.75l5,-0c-0,-2.083 -0.417,-4.167 -0.417,-6.25l-0,-23.333l-4.583,-0l-0,19.583Zm34.166,10l0,-20.417c0,-5.833 -1.666,-9.583 -7.916,-9.583c-3.75,-0 -5.834,1.25 -7.917,4.167l-0.417,-0l0,-3.75l-5,-0c0,2.083 0.417,4.166 0.417,6.25l-0,23.333l4.583,-0l0,-17.5c0,-4.167 0.834,-8.75 5.834,-8.75c4.166,-0 5,2.5 5,5.833l-0,20.417l5.416,-0Zm23.75,-16.25c0,5.833 0,12.5 -5.416,12.5c-5.834,-0 -5.834,-6.25 -5.834,-10.833c0,-7.917 0.834,-12.084 5.834,-12.084c5,0.417 5.416,6.667 5.416,10.417m0,-10.417c-1.666,-2.5 -3.75,-3.75 -6.666,-3.75c-9.584,0 -9.584,8.334 -9.584,15.834c0,12.916 4.584,15 9.584,15c2.916,-0 5,-1.25 6.666,-4.167l0,3.333l4.584,0l-0,-41.666l-4.584,-0l0,15.416Zm17.084,9.584c-0,-8.334 2.5,-9.584 5.416,-9.584c3.334,0 5.834,1.25 5.834,9.584l-11.25,-0Zm16.666,3.75l0,-2.5c0,-9.584 -2.083,-14.167 -10.416,-14.167c-10,-0 -11.25,7.083 -11.25,15.833c-0,12.917 5,15 11.25,15c6.25,0 10,-2.916 10.416,-9.583l-5.416,-0c-0,2.917 -1.667,5.417 -5,5.417c-3.75,-0 -5.834,-1.667 -5.834,-10l16.25,-0Zm26.25,5c0,-9.167 -14.583,-8.75 -14.583,-14.167c-0,-2.5 2.083,-4.167 4.583,-4.167c2.917,0 4.584,1.667 4.584,4.584l5.416,-0c0.417,-5.834 -4.166,-8.334 -9.166,-8.334c-8.334,0 -10,5 -10,7.917c-0,8.75 14.583,8.75 14.583,14.167c-0,2.916 -2.083,4.583 -5,4.583c-5,-0 -5,-4.167 -5,-5.833l-5.417,-0c0,6.666 3.75,9.583 10,9.583c5.417,0.417 10,-2.083 10,-8.333m26.667,8.333l-0,-20c-0,-1.25 0.417,-4.167 1.667,-5c1.25,-1.25 1.666,-1.25 3.75,-1.25c3.75,-0 4.583,2.917 4.583,5.833l-0,20.417l4.583,-0l0,-22.5c0,-7.083 -5,-7.5 -7.916,-7.5c-2.5,-0 -5.417,0.833 -7.084,3.75c-1.25,-2.5 -4.166,-3.75 -7.083,-3.75c-3.333,-0 -5.833,1.25 -7.5,4.167l-0,-3.75l-5,-0c-0,2.083 0.417,4.166 0.417,6.25l-0,23.333l4.583,-0l-0,-20c-0,-1.25 0.417,-2.917 1.25,-4.167c0.833,-1.25 2.5,-2.083 4.167,-2.083c3.75,-0 4.583,2.917 4.583,5.833l-0,20.417l5,-0Zm27.917,-29.583l-4.584,-0l0,29.583l4.584,-0l-0,-29.583Zm-5,-7.5l5.416,-0l0,-5l-5.416,-0l-0,5Zm34.583,37.083l-0,-20.417c-0,-5.833 -1.667,-9.583 -7.917,-9.583c-3.75,-0 -5.833,1.25 -7.916,4.167l-0.417,-0l-0,-3.75l-5,-0c-0,2.083 0.417,4.166 0.417,6.25l-0,23.333l4.583,-0l-0,-17.5c-0,-4.167 0.833,-8.75 5.833,-8.75c4.167,-0 5,2.5 5,5.833l0,20.417l5.417,-0Zm12.917,-29.583l-4.584,-0l0,29.583l4.584,-0l-0,-29.583Zm-5,-7.5l5.416,-0l0,-5l-5.416,-0l-0,5Zm32.5,28.75c-0,-9.167 -14.584,-8.75 -14.584,-14.167c0,-2.5 2.084,-4.167 4.584,-4.167c2.916,0 4.583,1.667 4.583,4.584l5.417,-0c0.416,-5.834 -4.167,-8.334 -9.167,-8.334c-8.333,0 -10,5 -10,7.917c-0,8.75 14.583,8.75 14.583,14.167c0,2.916 -2.083,4.583 -5,4.583c-5,-0 -5,-4.167 -5,-5.833l-5.416,-0c-0,6.666 3.75,9.583 10,9.583c5.416,0.417 10,-2.083 10,-8.333m2.916,-21.25l0,3.75l5,-0l0,20.833c0,3.333 2.084,5.417 6.667,5.417c1.667,-0 3.333,-0.417 4.583,-0.417l0,-3.75c-1.25,-0 -1.666,0.417 -2.083,0.417c-4.167,-0 -4.167,-2.5 -4.167,-4.167l0,-17.917l6.25,0l0,-3.75l-6.25,0l0,-7.916l-5,2.083l0,5.833l-5,-0.416Zm25.417,12.5c-0,-8.334 2.5,-9.584 5.417,-9.584c3.333,0 5.833,1.25 5.833,9.584l-11.25,-0Zm16.667,3.75l-0,-2.5c-0,-9.584 -2.084,-14.167 -10.417,-14.167c-10.417,-0 -11.25,7.083 -11.25,15.833c-0,12.917 5,15 11.25,15c6.25,0 10,-2.916 10.417,-9.583l-5.417,-0c-0,2.917 -1.667,5.417 -5,5.417c-3.75,-0 -5.833,-1.667 -5.833,-10l16.25,-0Zm11.666,-16.25l-4.583,-0l-0,29.583l4.583,-0l0,-17.5c0,-4.167 1.25,-7.917 6.667,-7.917c0.833,0 1.667,0 2.5,0.417l-0,-5c-4.583,-0 -7.083,0.417 -9.167,5l0,-4.583Zm19.167,-0l-4.583,-0l-0,29.583l4.583,-0l-0,-29.583Zm-5,-7.5l5.417,-0l-0,-5l-5.417,-0l-0,5Zm28.75,27.083c-0,5 -3.333,6.667 -5.833,6.667c-3.334,-0 -5,-2.5 -5,-5.834l-0,-20.416l-4.584,-0l0,22.5c0,5 2.917,7.5 7.917,7.5c2.917,-0 5.833,-1.25 7.5,-4.167l-0,3.75l5,-0c-0,-2.083 -0.417,-4.167 -0.417,-6.25l0,-23.333l-4.583,-0l-0,19.583Zm32.917,10l-0,-20c-0,-1.25 0.416,-4.167 1.666,-5c1.25,-1.25 1.667,-1.25 3.75,-1.25c3.75,-0 4.584,2.917 4.584,5.833l-0,20.417l5,-0l-0,-22.5c-0,-7.083 -5,-7.5 -7.917,-7.5c-2.5,-0 -5.417,0.833 -7.083,3.75c-1.25,-2.5 -4.167,-3.75 -7.084,-3.75c-3.333,-0 -5.833,1.25 -7.5,4.167l0,-3.75l-5,-0c0,2.083 0.417,4.166 0.417,6.25l-0,23.333l4.583,-0l0,-20c0,-1.25 0.417,-2.917 1.25,-4.167c0.834,-1.25 2.5,-2.083 4.167,-2.083c3.75,-0 4.583,2.917 4.583,5.833l0,20.417l4.584,-0Z" style="fill:#fff;fill-rule:nonzero;"/><rect x="168.75" y="369.167" width="18.333" height="104.167" style="fill:#f9d300;fill-rule:nonzero;"/><rect x="168.75" y="264.583" width="18.333" height="104.583" style="fill:#e20717;fill-rule:nonzero;"/><path d="M168.75,160.833l18.333,0l0,104.167l-18.333,0l0,-104.167Zm-57.5,17.5c0,-5.833 -4.167,-10.833 -5.833,-12.083l-0.834,0.417c1.667,2.083 4.584,5.416 4.584,9.583c-0,8.75 -9.167,16.25 -19.584,16.25l0,2.5c0,1.25 0,2.5 -0.416,3.75c11.666,-0.417 22.083,-10 22.083,-20.417m-16.25,71.25c-5,0 -6.25,-0.416 -7.5,-0.416c-0.833,-0 -1.667,-0 -1.667,1.25c0,0.833 0.834,2.083 1.667,2.5c1.25,-1.25 2.917,-1.25 5.417,-1.25c1.25,-0 2.916,0.416 3.75,0.416c-0,0.834 -0.417,1.667 -0.417,2.917l0,2.5c0,2.917 -0.417,4.583 -1.667,5.833c0.417,0 0.834,0.417 1.25,0.417c2.084,0 2.5,-0.833 2.5,-5.833l0,-3.334c2.5,2.084 5.417,5.834 5.417,8.334c0.833,-0.417 2.083,-1.667 2.083,-2.917c0,-1.667 -2.916,-4.583 -6.25,-7.917c0.417,0 1.667,-0.416 2.5,-0.416c2.5,-0 4.584,0.416 5.834,1.666c0.416,-0.416 0.833,-2.083 0.833,-2.916c0,-1.667 -0.833,-1.25 -1.667,-1.25c-2.5,-0 -5.833,0.416 -8.333,0.833c-0.833,-1.25 -6.25,-8.75 -7.917,-12.5c-0.416,0 -0.833,-0.417 -1.25,-0.417c-1.25,0 -1.666,0.834 -2.083,2.084c3.75,3.75 6.667,7.5 7.5,10.416m-30,-10.416c-0.417,-1.25 -0.833,-2.084 -2.083,-2.084c-0.834,0 -0.834,0 -1.25,0.417c-1.25,3.75 -7.084,11.25 -7.917,12.5c-2.5,-0.417 -5.833,-0.833 -8.333,-0.833c-0.834,-0 -1.667,-0 -1.667,1.25c0,0.833 0.417,2.5 0.833,2.916c1.25,-1.25 3.334,-1.666 5.834,-1.666c0.833,-0 2.083,0.416 2.5,0.416c-3.334,3.334 -6.25,5.834 -6.25,7.917c-0,0.833 0.833,2.5 2.083,2.917c0,-2.5 2.917,-6.25 5.417,-8.334l-0,3.334c-0,5 0.416,5.833 2.5,5.833c0.416,0 0.833,0 1.25,-0.417c-0.834,-1.25 -1.667,-2.916 -1.667,-5.833l0,-2.5c0,-1.25 0,-2.083 -0.417,-2.917c0.834,0 2.5,-0.416 3.75,-0.416c2.5,-0 4.167,0.416 5.417,1.25c0.833,-0.834 1.667,-1.667 1.667,-2.5c-0,-1.25 -0.834,-1.25 -1.667,-1.25c-1.25,-0 -2.5,0.416 -7.5,0.416c1.667,-2.916 4.583,-6.666 7.5,-10.416m-20.833,-62.917c-0,-4.167 2.916,-7.5 4.583,-9.583l-1.25,-0.417c-1.667,1.25 -5.833,5.833 -5.833,12.083c-0,10.417 10.416,20 22.5,20l-0,-6.25c-10.417,0.417 -20,-7.083 -20,-15.833m32.083,-7.917c0.417,-1.25 1.25,-2.916 1.25,-4.166c0,-4.584 -3.75,-6.667 -8.75,-6.667c-2.5,0 -3.75,0.833 -3.75,1.667c0,0.833 0.833,2.5 1.25,3.333c0.833,-0.417 2.5,-0.833 3.75,-0.833c3.333,-0.417 5.833,3.333 6.25,6.666m2.5,-5.833c2.917,0.417 5,-3.333 2.083,-3.75c0.417,1.25 -1.666,2.083 -1.666,2.083c-0,0 -0.834,-1.666 -0,-2.5c-1.667,-0.833 -2.084,0 -2.084,1.25c1.25,0.834 1.667,1.667 1.667,2.917m9.583,25.417l1.25,-0c8.334,-0 16.25,-5.417 16.25,-12.084c0,-3.75 -1.666,-6.25 -3.75,-9.166c-1.25,-0 -2.083,0.416 -2.916,0.416c-3.75,0 -5.834,-2.083 -5.834,-4.166c0,-1.667 1.25,-2.917 3.75,-2.917c3.334,-0 9.584,3.333 16.25,3.333c-0.833,0.417 -1.666,0.834 -2.916,1.25c3.75,3.334 6.25,7.917 7.083,12.5l9.583,15.417c1.667,2.5 5,7.917 10.417,11.667c-6.25,-0 -10.417,-0 -15.833,-8.334l-5,-7.083c-0.417,0.833 -0.834,2.083 -1.25,2.917l10,15.833c1.666,2.5 5,7.917 10.416,11.667c-6.25,-0 -10.416,-0 -15.833,-8.334l-8.75,-13.75l-2.083,2.084l12.083,19.166c1.667,2.5 5,7.5 10.417,11.667c-6.25,0 -10.417,0 -15.834,-8.333l-11.666,-18.75l-2.5,1.25l14.166,22.916c1.667,2.5 5,7.5 10.417,11.667c-6.25,0 -10.417,0 -15.833,-8.333l-14.584,-23.75c-0.833,0.416 -1.666,0.833 -2.5,0.833l16.667,26.667c1.667,2.5 5,7.916 10.417,11.666c-6.25,0 -10.417,0 -15.834,-8.333l-17.916,-28.333l-0.417,-0c-0.417,1.666 -0.833,2.916 -0.833,4.583c-0,8.75 5.833,16.667 12.916,22.917c-0.416,-0 -1.25,0.416 -2.083,0.416l-2.917,0c1.667,3.75 5,8.334 7.084,10.834c2.5,-0.417 5.833,-0.834 7.916,-0.834c2.5,0 2.5,1.25 2.5,2.5c0,2.084 -0.833,3.75 -2.083,4.584c-0.417,-1.25 -1.25,-2.5 -5.417,-2.5l-0.416,-0c1.25,1.25 5,4.583 5,7.083c-0,1.667 -1.667,4.167 -4.167,4.167l-0,-1.25c-0,-2.084 -1.667,-4.584 -3.333,-6.25l-0,0.833c-0,5 -0.417,7.083 -3.334,7.083c-1.666,0 -2.5,-0.833 -2.916,-1.25c2.083,-1.666 2.083,-3.333 2.083,-5.833l-0,-4.583l-2.5,-0c-0,-0 -4.583,-0.417 -5.417,2.083c-1.25,-1.25 -2.916,-2.5 -2.916,-4.167c-0,-1.25 0.416,-2.5 2.916,-2.5c0.834,0 3.334,0.417 5.834,0.417c-0.417,-1.25 -3.334,-5.417 -5.417,-8.333c-0.417,1.25 -0.833,2.5 -2.083,3.333c-0,-1.667 -1.25,-7.5 -4.167,-10.833c-0.417,2.083 -0.833,4.583 -0.833,9.583c-0,12.083 2.916,20.833 9.166,22.5c-0.833,1.25 -2.5,2.5 -4.166,2.5c-2.084,0 -3.334,-2.5 -4.584,-5c-0.833,1.667 -2.5,6.25 -4.166,6.25c-1.667,0 -3.75,-4.167 -4.167,-6.25c-1.25,2.5 -2.5,5 -4.583,5c-1.667,0 -3.334,-1.25 -4.167,-2.5c6.25,-1.667 9.167,-10.417 9.167,-22.5c-0,-5 -0.417,-7.5 -0.834,-9.583c-2.916,3.333 -3.75,9.166 -4.166,10.833c-1.25,-0.833 -1.667,-2.083 -2.084,-3.333c-2.5,2.916 -5,6.666 -5.416,8.333c2.083,0 5,-0.417 5.833,-0.417c2.083,0 2.917,1.25 2.917,2.5c-0,1.667 -1.667,3.334 -2.917,4.167c-1.25,-2.083 -5.417,-2.083 -5.417,-2.083l-2.5,-0l0,4.583c0,2.917 0,4.167 2.084,5.833c-0.417,0.417 -1.25,1.25 -2.917,1.25c-2.917,0 -3.333,-2.083 -3.333,-7.083l-0,-0.833c-1.667,1.666 -3.334,4.166 -3.334,6.25l0,1.25c-2.5,-0 -4.166,-2.5 -4.166,-4.167c-0,-2.5 3.75,-5.833 5,-7.083l-0.417,-0c-4.167,-0 -5,1.25 -5.417,2.5c-1.25,-0.834 -2.083,-2.5 -2.083,-4.584c-0,-1.25 0.417,-2.5 2.5,-2.5c2.083,0 5.417,0.417 7.917,0.834c1.666,-2.5 5.416,-7.084 7.083,-10.834l-2.917,0c-0.833,0 -1.666,0 -2.083,-0.416c7.083,-6.25 12.917,-14.167 12.917,-22.917c-0,-1.25 -0.417,-2.917 -0.834,-4.583l-0.416,-0l-17.917,28.333c-5.417,8.333 -9.583,8.333 -15.833,8.333c5,-4.166 8.75,-9.166 10.416,-11.666l16.667,-26.667c-0.833,-0.417 -1.667,-0.417 -2.5,-0.833l-14.583,23.75c-5.417,8.333 -9.584,8.333 -15.834,8.333c5.417,-4.167 8.75,-9.167 10.417,-11.667l14.167,-22.916l-2.5,-1.25l-14.167,19.166c-5.417,8.334 -9.583,8.334 -15.833,8.334c5.416,-4.167 8.75,-9.167 10.416,-11.667l12.084,-19.167l-2.084,-2.083l-8.75,13.333c-5.416,8.334 -9.583,8.334 -15.833,8.334c5.417,-4.167 8.75,-9.167 10.417,-11.667l10,-15.833c-0.417,-0.834 -0.834,-2.084 -1.25,-2.917l-5,7.917c-5.417,8.333 -9.584,8.333 -15.834,8.333c5.417,-4.167 8.75,-9.167 10.417,-11.667l9.583,-15.416c0.834,-5 3.334,-9.167 7.084,-12.5c-1.25,-0.417 -2.084,-0.834 -2.917,-1.25c6.25,-0 12.5,-3.334 16.25,-3.334c2.083,0 3.75,1.25 3.75,2.917c0,2.083 -2.083,4.167 -5.833,4.167c-0.834,-0 -2.084,-0 -2.917,-0.417c-2.083,2.917 -3.75,5.417 -3.75,9.167c0,6.666 8.333,12.083 16.25,12.083l1.25,-0c1.667,-5.417 5,-9.167 7.917,-12.5c-3.334,-1.25 -7.084,-4.167 -7.084,-5.833c0.417,-0.417 6.667,1.666 7.5,2.083l0.417,-0c0.833,-0.417 1.25,-1.25 1.25,-1.667c-0.833,0 -4.583,-0.833 -7.5,-1.666c-2.083,-0.834 -3.333,-2.084 -3.333,-2.5c0.833,-0 3.333,1.25 7.083,1.25c1.25,-0 1.667,-0 2.917,-0.417c-0.834,-2.083 -2.917,-4.167 -4.584,-4.167c-0.833,0 -2.5,0.417 -4.166,1.25c-0.834,-1.666 -2.084,-3.75 -2.084,-5c0,-1.25 1.25,-2.916 5,-2.916c1.25,-0 2.084,-0 2.917,0.416c0.833,0 1.25,0.417 2.083,0.417l0,-0.417c0,-0.416 0.417,-1.25 2.084,-1.25c3.333,0 6.25,0.834 10.416,0.834c0.834,-0 1.667,-0 2.5,-0.417c-0.416,0.833 -1.25,2.083 -2.5,2.917c0.834,0.833 2.084,2.916 2.084,6.25c-0,5.416 -3.334,10 -3.334,15.416c0.417,2.917 2.917,5.417 3.75,7.084m148.334,-150.834c-0,-2.916 -1.25,-4.583 -4.584,-4.583c-1.25,-0 -5,-0 -5,5.833l0,8.75c0,5.834 1.667,7.084 5,7.084c2.5,-0 4.167,-0.834 4.584,-1.25l-0,-7.917l-5,-0l-0,-2.917l8.333,0l0,12.917c-2.083,1.25 -4.583,2.083 -7.917,2.083c-5.416,0 -8.333,-2.916 -8.333,-10l0,-8.75c0,-5.416 2.5,-8.75 8.333,-8.75c5.834,0 8.334,2.084 8.334,7.5l-3.75,0Zm10,19.584l-0,-26.25l13.333,-0l0,2.916l-10,0l0,8.334l9.167,-0l-0,2.916l-9.167,0l0,9.167l10.417,-0l-0,2.917m4.166,-0l0,-26.25l12.917,-0l0,2.916l-9.583,0l-0,8.334l9.166,-0l0,2.916l-9.166,0l-0,12.084m12.916,-9.584l0,-8.75c0,-5.416 2.5,-8.75 8.334,-8.75c5.416,0 8.333,3.334 8.333,8.75l0,8.75c0,7.5 -2.5,10 -8.333,10c-5.834,0 -8.334,-2.916 -8.334,-10m6.667,-20l-3.333,0l-0,-3.75l3.333,0l0,3.75Zm6.25,20l0,-8.75c0,-5.416 -3.75,-5.833 -5,-5.833c-1.25,-0 -5,-0 -5,5.833l0,8.75c0,5.834 1.667,7.084 5,7.084c3.333,-0 5,-1.25 5,-7.084m0.417,-20l-3.334,0l0,-3.75l3.334,0l-0,3.75Zm12.083,17.5l0,12.084l-3.333,-0l-0,-26.25l9.166,-0c4.584,-0 6.25,3.333 6.25,6.666c0,2.917 -1.666,5.417 -5,5.834c2.917,0.416 4.167,1.666 4.167,6.666c0,1.25 0.417,5.417 0.833,7.084l-3.333,-0c-0.833,-1.667 -0.833,-5.417 -0.833,-8.75c-0.417,-3.334 -2.917,-3.334 -4.167,-3.334l-3.75,0Zm0,-2.916l5,-0c2.5,-0 3.75,-2.084 3.75,-4.584c0,-2.083 -0.833,-4.166 -3.333,-4.166l-5,-0l-0.417,8.75Zm17.083,-11.25l7.917,-0c3.333,-0 5.833,1.25 7.083,4.166c1.25,2.084 1.25,7.5 1.25,8.334c0,5.416 -0.416,8.75 -1.666,10.416c-1.25,2.084 -4.167,3.334 -8.75,3.334l-6.25,-0l0.416,-26.25Zm3.334,23.333l3.333,-0c4.583,-0 6.25,-1.667 6.25,-7.917l0,-5.416c0,-5.417 -1.667,-7.084 -5,-7.084l-4.583,0l-0,20.417Zm19.166,2.917l0,-26.25l13.334,-0l-0,2.916l-10,0l-0,8.334l9.166,-0l0,2.916l-9.166,0l-0,9.167l10.416,-0l0,2.917m7.5,-12.5l0,12.5l-3.333,-0l0,-26.25l9.167,-0c4.583,-0 6.25,2.916 6.25,6.25c-0,2.916 -1.667,5.416 -5,5.833c2.916,0.417 4.166,1.667 4.166,6.667c0,1.25 0.417,5.416 0.834,7.083l-3.334,-0c-0.833,-1.667 -0.833,-5.417 -0.833,-8.75c-0.417,-3.333 -2.917,-3.333 -4.167,-3.333l-3.75,-0Zm0,-2.5l5,-0c2.5,-0 3.75,-2.084 3.75,-4.584c0,-2.083 -0.833,-4.166 -3.333,-4.166l-5,-0l-0.417,8.75Zm32.084,-11.25l-0,2.916l-7.084,0l0,23.334l-3.333,-0l0,-23.334l-7.083,0l-0,-2.916m37.916,26.25l-3.75,-0l-7.916,-26.25l3.75,-0l5.833,22.916l0.417,0l5.833,-22.916l3.75,-0m3.333,16.666l0,-8.75c0,-5.416 2.5,-8.75 8.334,-8.75c5.416,0 8.333,3.334 8.333,8.75l0,8.75c0,7.5 -2.5,10 -8.333,10c-5.834,0 -8.334,-2.916 -8.334,-10m12.917,0l0,-8.75c0,-5.416 -3.75,-5.833 -5,-5.833c-1.25,-0 -5,-0 -5,5.833l0,8.75c0,5.834 1.667,7.084 5,7.084c3.333,-0 5,-1.25 5,-7.084m12.5,9.584l-3.333,-0l-0,-26.25l5.416,-0l6.667,22.083l0.417,-0l6.666,-22.083l5.417,-0l0,26.25l-3.333,-0l-0,-23.334l-7.5,23.334l-3.334,-0l-7.083,-23.334" style="fill:#fff;fill-rule:nonzero;"/><rect x="168.768" y="160.417" width="17.789" height="107.083"/></svg>