<?xml version="1.0" encoding="UTF-8" standalone="no"?><!DOCTYPE svg PUBLIC "-//W3C//DTD SVG 1.1//EN" "http://www.w3.org/Graphics/SVG/1.1/DTD/svg11.dtd"><svg width="100%" height="100%" viewBox="0 0 783 499" version="1.1" xmlns="http://www.w3.org/2000/svg" xmlns:xlink="http://www.w3.org/1999/xlink" xml:space="preserve" xmlns:serif="http://www.serif.com/" style="fill-rule:evenodd;clip-rule:evenodd;stroke-linejoin:round;stroke-miterlimit:2;"><rect x="-2390.42" y="-1417.92" width="5333.33" height="3333.33" style="fill:none;fill-rule:nonzero;"/><rect x="-2323.75" y="-1388.75" width="5333.33" height="3333.33" style="fill:none;fill-rule:nonzero;"/><rect x="-2323.75" y="-1388.75" width="5333.33" height="3333.33" style="fill:none;fill-rule:nonzero;"/><rect x="-2323.75" y="-1388.75" width="5333.33" height="3333.33" style="fill:none;fill-rule:nonzero;"/><rect x="-2323.75" y="-1388.75" width="5333.33" height="3333.33" style="fill:none;fill-rule:nonzero;"/><rect x="-2323.75" y="-1388.75" width="5333.33" height="3333.33" style="fill:none;fill-rule:nonzero;"/><path d="M383.333,197.917c-7.5,-0 -12.916,-5.417 -12.916,-12.5c-0,-7.084 5,-12.5 12.916,-12.5c7.5,-0 12.917,5.416 12.917,12.5c0,7.083 -5,12.5 -12.917,12.5m0,-20.417c-4.583,0 -7.083,2.917 -7.083,7.917c0,5 2.5,7.916 7.083,7.916c4.167,0 7.084,-2.916 7.084,-7.916c-0,-5 -2.5,-7.917 -7.084,-7.917m28.75,12.083l0,8.334l-5.833,-0l0,-24.584l8.75,0c7.083,0 10,3.334 10,7.917c0,5 -2.917,8.333 -10,8.333l-2.917,0Zm0,-4.583l2.917,0c2.917,0 4.167,-1.667 4.167,-4.167c-0,-2.083 -1.25,-3.75 -4.167,-3.75l-2.917,0l0,7.917Zm39.167,-12.083l0,4.583l-10,0l0,5.833l7.5,0l0,4.167l-7.5,0l0,5.833l10,0l0,4.167l-15.833,0l-0,-24.583m32.916,0.833l11.667,15l0,-15.417l5,0l0,24.584l-2.917,-0c-0.833,-0 -1.25,-0.417 -2.083,-0.834l-11.667,-14.583l0,15.833l-5,0l0,-24.583l5,0m-90.833,55l0.833,0c0.834,0 1.667,-0.417 1.667,-0.833l5.417,-7.917c0.416,-0.833 1.25,-1.25 2.5,-1.25l5,0l-7.5,10c-0.417,0.833 -1.25,1.25 -1.667,1.667c0.833,0.416 1.667,0.833 2.083,1.666l7.5,11.25l-5,0c-1.25,0 -1.666,-0.416 -2.083,-1.25l-5.417,-8.75c-0.416,-0.833 -0.833,-0.833 -2.083,-0.833l-1.25,0l0,10.417l-5.833,-0l-0,-24.584l5.833,0l0,10.417Zm32.083,-9.167l11.667,15l0,-15.416l5,-0l0,24.583l-2.917,0c-0.833,0 -1.25,-0.417 -2.083,-0.833l-11.667,-14.584l0,15.834l-5,-0l0,-24.584l2.917,0c1.25,-0.833 1.667,-0.833 2.083,0m40.417,24.167c-7.5,0 -12.917,-5.417 -12.917,-12.5c0,-7.083 5,-12.5 12.917,-12.5c7.5,0 12.917,5.417 12.917,12.5c-0,7.083 -5,12.5 -12.917,12.5m0,-20.417c-4.583,0 -7.083,2.917 -7.083,7.917c-0,5 2.5,7.917 7.083,7.917c4.167,-0 7.083,-2.917 7.083,-7.917c0,-5 -2.5,-7.917 -7.083,-7.917m19.167,-4.583l5,0c0.833,0 1.666,0.417 2.083,1.25l3.333,12.917c0.417,0.833 0.417,1.666 0.417,2.916c0.417,-1.25 0.417,-2.083 0.833,-2.916l4.167,-12.917c-0,-0.833 0.833,-1.25 1.667,-1.25l1.666,0c0.834,0 1.667,0.417 2.084,1.25l4.166,12.917c0.417,0.833 0.417,1.666 0.834,2.5c-0,-0.834 0.416,-2.084 0.416,-2.5l3.334,-12.917c-0,-0.833 0.833,-1.25 1.666,-1.25l4.584,0l-7.5,24.583l-5,0l-4.584,-15.416c0,-0.417 -0.416,-1.25 -0.416,-1.667c-0,0.833 -0.417,1.25 -0.417,1.667l-4.583,15.416l-5,0l-8.75,-24.583Zm52.083,20l9.167,0l-0,4.583l-15,0l-0,-24.583l5.833,0m37.083,0l0,4.583l-10,0l0,5.417l7.5,0l0,4.583l-7.5,0l0,5.834l10,-0l0,4.166l-15.833,0l0,-24.583m37.5,24.583l-9.583,0l-0,-24.583l9.583,0c7.5,0 12.917,5.417 12.917,12.5c-0,7.083 -5.417,12.083 -12.917,12.083m0,-20l-3.75,0l0,15.834l3.75,-0c4.167,-0 7.083,-2.917 7.083,-7.917c0,-5 -2.916,-7.917 -7.083,-7.917m38.333,15.417l0,-3.75l-2.5,0c-0.833,0 -1.25,-0.417 -1.25,-0.833l0,-3.334l8.75,0l0,10.417c-2.5,1.667 -5.416,2.5 -9.583,2.5c-7.083,0 -12.5,-5.417 -12.5,-12.5c0,-7.5 5,-12.5 12.917,-12.5c4.166,0 7.083,1.25 9.166,3.333l-1.666,2.5c-0.417,0.417 -0.834,0.834 -1.25,0.834c-0.417,-0 -0.834,-0 -1.25,-0.417c-1.667,-1.25 -2.917,-1.667 -5.417,-1.667c-4.167,0 -7.083,3.334 -7.083,7.917c-0,5.417 2.916,8.333 7.083,8.333c2.5,-0.416 3.75,-0.416 4.583,-0.833m32.5,-20l0,4.583l-10,0l0,5.417l7.917,0l0,4.583l-7.917,0l0,5.834l10,-0l0,4.166l-15.833,0l0,-24.583m-247.083,45.833l-0,4.167l-10.417,0l-0,6.25l8.333,0l0,4.583l-8.333,0l-0,9.584l-5.833,-0l-0,-24.584m53.75,12.084c-0,1.666 -0.417,3.333 -0.834,5c-0.416,1.666 -1.666,2.916 -2.5,4.166c-1.25,1.25 -2.5,2.084 -4.166,2.5c-1.667,0.834 -3.334,0.834 -5.417,0.834c-2.083,-0 -3.75,-0.417 -5.417,-0.834c-1.666,-0.833 -2.916,-1.666 -4.166,-2.5c-1.25,-1.25 -2.084,-2.5 -2.5,-4.166c-0.417,-1.667 -0.834,-3.334 -0.834,-5c0,-1.667 0.417,-3.334 0.834,-5c0.416,-1.667 1.666,-2.917 2.5,-4.167c1.25,-1.25 2.5,-2.083 4.166,-2.5c1.667,-0.833 3.334,-0.833 5.417,-0.833c2.083,-0 3.75,0.416 5.417,0.833c1.666,0.833 2.916,1.667 4.166,2.5c1.25,1.25 2.084,2.5 2.5,4.167c0.417,1.666 0.834,3.333 0.834,5m-6.25,-0c-0,-1.25 -0,-2.5 -0.417,-3.334l-1.25,-2.5c0,0 -1.25,-1.25 -2.083,-1.666c-0.834,-0.417 -1.667,-0.417 -2.917,-0.417c-1.25,0 -2.083,0 -2.917,0.417c-0.833,0.416 -1.666,0.833 -2.083,1.666c-0.417,0.834 -1.25,1.667 -1.25,2.5c-0.417,0.834 -0.417,2.084 -0.417,3.334c0,1.25 0,2.5 0.417,3.333l1.25,2.5c0.417,0.833 1.25,1.25 2.083,1.667c0.834,0.416 1.667,0.416 2.917,0.416c1.25,0 2.083,0 2.917,-0.416c0.833,-0.417 1.666,-0.834 2.083,-1.667c0.417,-0.833 1.25,-1.667 1.25,-2.5c0.417,-0.833 0.417,-2.083 0.417,-3.333m29.166,7.916c0.834,0 1.25,0 2.084,-0.416c0.416,-0.417 1.25,-0.417 1.666,-1.25c0.417,-0.417 0.834,-1.25 0.834,-1.667c0.416,-0.833 0.416,-1.667 0.416,-2.5l0,-14.583l5.834,-0l-0,15c-0,1.666 -0.417,2.916 -0.834,4.166c-0.416,1.25 -1.25,2.5 -2.083,3.334c-0.833,0.833 -2.083,1.666 -3.333,2.083c-1.25,0.417 -2.917,0.833 -4.584,0.833c-1.666,0 -3.333,-0.416 -4.583,-0.833c-1.25,-0.417 -2.5,-1.25 -3.333,-2.083c-0.834,-0.834 -1.667,-2.084 -2.084,-3.334c-0.416,-1.25 -0.833,-2.5 -0.833,-4.166l0,-14.584l5.833,0l0,14.584c0,0.833 0,1.666 0.417,2.5c0.417,0.833 0.417,1.25 0.833,1.666c0.417,0.417 0.834,0.834 1.667,1.25l2.083,0m28.334,-20l0.416,0c0,0 0.417,0 0.417,0.417l0.417,0.417l11.666,15l0,-15.417l5,0l0,24.583l-4.166,0c-0.417,0 -0.417,-0.416 -0.834,-0.833l-11.666,-14.583l-0,15.833l-5,0l-0,-24.583l2.916,-0c0.417,-0.834 0.417,-0.834 0.834,-0.834m54.166,12.084c0,1.666 -0.416,3.333 -0.833,5c-0.417,1.666 -1.667,2.916 -2.5,3.75c-0.833,0.833 -2.5,2.083 -4.167,2.5c-1.666,0.416 -3.333,0.833 -5.416,0.833l-9.584,0l0,-24.583l9.584,-0c2.083,-0 3.75,0.416 5.416,0.833c1.667,0.417 2.917,1.667 4.167,2.5c1.25,1.25 2.083,2.5 2.5,3.75c0.833,2.083 0.833,3.75 0.833,5.417m-5.833,-0c0,-1.25 0,-2.5 -0.417,-3.334l-1.25,-2.5c0,0 -1.25,-1.25 -2.083,-1.666c-0.833,-0.417 -1.667,-0.417 -2.917,-0.417l-3.75,0l0,15.833l3.75,0c1.25,0 2.084,0 2.917,-0.416c0.833,-0.417 1.667,-0.834 2.083,-1.667c0.417,-0.833 1.25,-1.667 1.25,-2.5c0.417,-0.833 0.417,-2.083 0.417,-3.333m42.083,12.5l-4.583,-0c-0.417,-0 -0.833,-0 -1.25,-0.417l-0.833,-0.833l-1.25,-4.167l-9.584,0l-1.666,4.167c-0,0.416 -0.417,0.416 -0.834,0.833c-0.416,0.417 -0.833,0.417 -1.25,0.417l-4.583,-0l9.583,-24.584l5.834,0l10.416,24.584Zm-15.833,-9.584l6.667,0l-2.084,-6.666c0,-0.417 -0.416,-0.834 -0.416,-1.667c-0,-0.417 -0.417,-1.25 -0.417,-2.083c0,0.833 -0.417,1.25 -0.417,2.083c0,0.417 -0.416,1.25 -0.416,1.667l-2.917,6.666Zm45.833,-15l0,4.584l-7.083,-0l0,20l-5.833,-0l-0,-20l-6.667,-0l0,-4.584m32.5,0l5.833,0l0,24.584l-5.833,-0l0,-24.584Zm45,12.084c0,1.666 -0.417,3.333 -0.833,5c-0.417,1.666 -1.667,2.916 -2.5,4.166c-1.25,1.25 -2.5,2.084 -4.167,2.5c-1.667,0.834 -3.333,0.834 -5.417,0.834c-2.083,-0 -3.75,-0.417 -5.416,-0.834c-1.667,-0.833 -2.917,-1.666 -4.167,-2.5c-1.25,-1.25 -2.083,-2.5 -2.5,-4.166c-0.417,-1.667 -0.833,-3.334 -0.833,-5c-0,-1.667 0.416,-3.334 0.833,-5c0.417,-1.667 1.667,-2.917 2.5,-4.167c1.25,-1.25 2.5,-2.083 4.167,-2.5c1.666,-0.833 3.333,-0.833 5.416,-0.833c2.084,-0 3.75,0.416 5.417,0.833c1.667,0.833 2.917,1.667 4.167,2.5c1.25,1.25 2.083,2.5 2.5,4.167c0.416,1.666 0.833,3.333 0.833,5m-5.833,-0c-0,-1.25 -0,-2.5 -0.417,-3.334l-1.25,-2.5c0,0 -1.25,-1.25 -2.083,-1.666c-0.834,-0.417 -1.667,-0.417 -2.917,-0.417c-1.25,0 -2.083,0 -2.917,0.417c-0.833,0.416 -1.666,0.833 -2.083,1.666c-0.417,0.834 -1.25,1.667 -1.25,2.5c-0.417,0.834 -0.417,2.084 -0.417,3.334c0,1.25 0,2.5 0.417,3.333l1.25,2.5c0.417,0.833 1.25,1.25 2.083,1.667c0.834,0.416 1.667,0.416 2.917,0.416c1.25,0 2.083,0 2.917,-0.416c0.833,-0.417 1.666,-0.834 2.083,-1.667c0.417,-0.833 1.25,-1.667 1.25,-2.5c0,-0.833 0.417,-2.083 0.417,-3.333m22.083,-12.084l0.417,0c-0,0 0.416,0 0.416,0.417l0.417,0.417l11.667,15l-0,-15.417l5,0l-0,24.583l-4.167,0c-0.417,0 -0.417,-0.416 -0.833,-0.833l-11.667,-14.583l0,15.833l-5,0l0,-24.583l2.917,-0c0.416,-0.834 0.833,-0.834 0.833,-0.834" style="fill:#fff;fill-rule:nonzero;"/><path d="M254.84,178.881l-7.679,-5.733l47.363,-63.436l7.679,5.734l-47.363,63.435Z" style="fill:#fff;fill-rule:nonzero;"/><path d="M240.511,168.762l-8.578,-4.272l17.089,-34.314l8.578,4.273l-17.089,34.313Z" style="fill:#fff;fill-rule:nonzero;"/><path d="M224.693,161.793l-9.203,-2.673l16.739,-57.618l9.203,2.674l-16.739,57.617Z" style="fill:#fff;fill-rule:nonzero;"/><path d="M201.976,118.77l9.533,0.986l-3.942,38.13l-9.532,-0.986l3.941,-38.13Z" style="fill:#fff;fill-rule:nonzero;"/><path d="M186.743,114.061l3.28,42.791l-9.555,0.733l-3.281,-42.791l9.556,-0.733Z" style="fill:#fff;fill-rule:nonzero;"/><path d="M165.215,130.065l7.388,28.215l-9.271,2.428l-7.388,-28.216l9.271,-2.427Z" style="fill:#fff;fill-rule:nonzero;"/><path d="M147.494,167.773l-8.26,-17.756l8.689,-4.042l8.26,17.756l-8.689,4.042Z" style="fill:#fff;fill-rule:nonzero;"/><path d="M135.806,165.435l4.324,6.128l-7.83,5.525l-4.324,-6.129l7.83,-5.524Z" style="fill:#fff;fill-rule:nonzero;"/><path d="M104.039,160.323l22.299,21.893l-6.713,6.839l-22.3,-21.893l6.714,-6.839Z" style="fill:#fff;fill-rule:nonzero;"/><path d="M109.583,203.333l-35,-24.166l5.417,-7.917l35,24.167" style="fill:#fff;fill-rule:nonzero;"/><path d="M83.732,200.591l21.713,9.624l-3.884,8.761l-21.713,-9.623l3.884,-8.762Z" style="fill:#fff;fill-rule:nonzero;"/><path d="M96.678,235.686l-64.793,-15.693l2.256,-9.314l64.793,15.693l-2.256,9.314Z" style="fill:#fff;fill-rule:nonzero;"/><path d="M95.128,253.117l-48.251,-2.816l0.558,-9.567l48.252,2.816l-0.559,9.567Z" style="fill:#fff;fill-rule:nonzero;"/><path d="M49.638,276.091l-1.16,-9.513l46.736,-5.702l1.161,9.513l-46.737,5.702Z" style="fill:#fff;fill-rule:nonzero;"/><path d="M90.7,290.639l-2.842,-9.152l10.345,-3.213l2.843,9.152l-10.346,3.213Z" style="fill:#fff;fill-rule:nonzero;"/><path d="M73.301,321.686l-4.428,-8.499l35.106,-18.287l4.427,8.499l-35.105,18.287Z" style="fill:#fff;fill-rule:nonzero;"/><path d="M84.663,343.596l-5.877,-7.57l33.902,-26.316l5.876,7.57l-33.901,26.316Z" style="fill:#fff;fill-rule:nonzero;"/><path d="M103.423,360.811l-7.134,-6.399l27.823,-31.017l7.133,6.399l-27.822,31.017Z" style="fill:#fff;fill-rule:nonzero;"/><path d="M135.525,356.051l-8.161,-5.024l10.047,-16.322l8.161,5.023l-10.047,16.323Z" style="fill:#fff;fill-rule:nonzero;"/><path d="M152.652,342.819l8.926,3.488l-13.65,34.927l-8.926,-3.488l13.65,-34.927Z" style="fill:#fff;fill-rule:nonzero;"/><path d="M172.162,384.545l-9.405,-1.836l6.626,-33.942l9.405,1.836l-6.626,33.942Z" style="fill:#fff;fill-rule:nonzero;"/><path d="M186.415,351.594l9.582,0.136l-0.335,23.747l-9.583,-0.135l0.336,-23.748Z" style="fill:#fff;fill-rule:nonzero;"/><path d="M213.373,349.469l7.654,45.612l-9.451,1.586l-7.654,-45.612l9.451,-1.586Z" style="fill:#fff;fill-rule:nonzero;"/><path d="M230.687,373.468l-9.461,-26.264l9.016,-3.248l9.461,26.265l-9.016,3.247Z" style="fill:#fff;fill-rule:nonzero;"/><path d="M237.5,340.833l34.583,59.167l8.334,-5l-34.584,-59.167m11.667,1.25l-5,-5.416l6.667,-6.667l5.416,5.417" style="fill:#fff;fill-rule:nonzero;"/><path d="M271.112,312.148l23.85,19.541l-6.074,7.413l-23.85,-19.541l6.074,-7.413Z" style="fill:#fff;fill-rule:nonzero;"/><path d="M280.349,297.22l24.405,13.553l-4.653,8.378l-24.405,-13.553l4.653,-8.378Z" style="fill:#fff;fill-rule:nonzero;"/><path d="M286.478,280.747l11.835,4.023l-3.084,9.073l-11.835,-4.023l3.084,-9.073Z" style="fill:#fff;fill-rule:nonzero;"/><path d="M325.4,278.855l-36.679,-5.46l1.411,-9.479l36.679,5.46l-1.411,9.479Z" style="fill:#fff;fill-rule:nonzero;"/><path d="M313.664,245.367l0.305,9.578l-23.738,0.755l-0.305,-9.578l23.738,-0.755Z" style="fill:#fff;fill-rule:nonzero;"/><path d="M288.871,238.303l-2.007,-9.371l29.335,-6.282l2.007,9.371l-29.335,6.282Z" style="fill:#fff;fill-rule:nonzero;"/><path d="M299.836,204.782l3.652,8.86l-18.877,7.78l-3.651,-8.86l18.876,-7.78Z" style="fill:#fff;fill-rule:nonzero;"/><path d="M322.127,165.448l5.17,8.069l-49.821,31.916l-5.169,-8.07l49.82,-31.915Z" style="fill:#fff;fill-rule:nonzero;"/><path d="M268.119,177.126l6.533,7.013l-7.622,7.1l-6.533,-7.012l7.622,-7.101Z" style="fill:#fff;fill-rule:nonzero;"/><path d="M185.417,246.667c-0.834,-0.834 -1.667,-1.667 -2.917,-2.084c-1.25,-0.416 -2.5,-0.833 -3.75,-0.833l-5,0l0,20.417l5,-0c1.25,-0 2.5,-0.417 3.75,-0.834c1.25,-0.416 2.083,-1.25 2.917,-2.083c0.833,-0.833 1.25,-2.083 1.666,-3.333c0.417,-1.25 0.417,-2.5 0.417,-4.167c0,-1.667 0,-2.917 -0.417,-4.167c-0.416,-1.25 -0.833,-2.083 -1.666,-2.916" style="fill:#fff;fill-rule:nonzero;"/><path d="M252.917,255.833l-0.417,-7.083l-21.25,0.833l20.833,-4.583l-1.666,-6.667l-20.834,4.584l19.584,-7.917l-2.5,-6.667l-19.584,7.917l17.917,-11.25l-3.75,-5.833l-17.917,11.666l15.417,-14.583l-4.583,-5l-15.417,13.75l12.917,-17.083l-5.417,-4.167l-13.333,17.083l9.583,-19.166l-6.25,-3.334l-9.583,19.167l5.833,-20.417l-6.667,-2.083l-5.833,20.833l2.083,-21.25l-7.083,-0.833l-2.5,22.083l-1.667,-22.083l-7.083,0.417l1.667,21.25l-5.417,-20.417l-6.667,1.667l5.417,20.416l-9.167,-19.166l-6.25,2.916l9.167,19.167l-12.083,-17.5l-5.834,4.167l12.5,17.5l-15,-15l-5,5l15,15l-17.5,-12.084l-3.75,5.834l17.5,12.083l-19.583,-8.75l-2.917,6.25l19.584,8.75l-20.834,-5l-1.25,7.5l20.834,5l-21.25,-1.25l-0.834,6.667l21.25,1.25l-20.833,2.916l0.833,7.084l20.834,-2.917l-20.417,6.25l2.083,6.667l20.417,-6.25l-18.75,10l3.333,6.25l18.75,-10l-16.666,12.916l4.166,5.417l16.667,-12.917l-14.167,15.834l5.417,4.583l14.167,-15.833l-11.25,17.916l5.833,3.75l11.25,-17.916l-7.917,20l6.667,2.5l7.917,-20l-4.167,20.833l7.083,1.25l4.167,-20.833l-0.417,21.25l7.084,-0l0.416,-21.25l3.334,20.833l7.083,-1.25l-3.333,-20.833l7.083,20l6.667,-2.5l-7.084,-20l10.834,18.333l6.25,-3.333l-10.834,-18.334l13.75,16.25l5.417,-4.583l-13.75,-16.25l16.25,13.333l4.583,-5.416l-17.083,-12.917l18.75,10.417l3.333,-6.25l-18.75,-10.417l20,6.667l2.084,-6.667l-20,-6.667l20.833,3.334l1.25,-7.084l-20.833,-3.333l21.25,-0.417Zm-58.75,4.584c-0.834,2.083 -2.084,3.75 -3.334,5c-1.25,1.25 -3.333,2.5 -5.416,3.333c-2.084,0.833 -4.167,1.25 -6.667,1.25l-12.5,-0l0,-31.667l12.5,0c2.5,0 4.583,0.417 6.667,1.25c2.083,0.834 3.75,2.084 5.416,3.334c1.25,1.25 2.5,2.916 3.334,5c0.833,2.083 1.25,4.166 1.25,6.25c-0,2.5 -0.417,4.583 -1.25,6.25m25,-16.25l-12.917,-0l0,7.5l10,-0l0,5.416l-10,0l0,7.5l12.917,0l-0,5.834l-20.417,-0l0,-31.667l20.417,-0l-0,5.417Zm172.916,72.916c0,1.667 -0.416,3.334 -0.833,5c-0.417,1.667 -1.25,2.917 -2.5,3.75c-1.25,1.25 -2.5,1.667 -3.75,2.5c-1.25,0.834 -2.917,0.834 -4.583,0.834l-9.167,-0l0,-24.167l9.167,0c1.666,0 3.333,0.417 5,0.833c1.666,0.417 2.916,1.25 3.75,2.5c1.25,1.25 1.666,2.5 2.5,3.75c0.416,1.667 0.416,3.334 0.416,5m-3.333,0c0,-1.666 0,-2.916 -0.417,-4.166c-0.416,-1.25 -0.833,-2.084 -1.666,-2.917c-0.834,-0.833 -1.667,-1.25 -2.5,-1.667c-1.25,-0.416 -2.084,-0.833 -3.334,-0.833l-5.833,-0l0,18.75l5.833,-0c1.25,-0 2.5,-0.417 3.334,-0.833c1.25,-0.417 2.083,-1.25 2.5,-1.667c0.833,-0.833 1.25,-1.667 1.666,-2.917c0.417,-0.833 0.417,-2.083 0.417,-3.75m32.917,-12.083l-0,2.917l-11.667,-0l0,7.916l9.167,0l-0,2.5l-9.167,0l0,8.334l11.667,-0l-0,2.5l-15,-0l-0,-24.167m38.75,21.667c0.833,-0 2.083,-0 2.5,-0.417c0.416,-0.417 1.25,-0.833 2.083,-1.25c0.417,-0.417 0.833,-1.25 1.25,-2.083c0.417,-0.834 0.417,-1.667 0.417,-2.917l-0,-14.583l3.333,-0l0,14.583c0,1.25 -0.417,2.5 -0.833,3.75c-0.417,1.25 -1.25,2.083 -2.084,2.917c-0.833,0.833 -1.666,1.666 -2.916,2.083c-1.25,0.417 -2.5,0.833 -4.167,0.833c-1.667,0 -2.917,-0.416 -4.167,-0.833c-1.25,-0.417 -2.083,-1.25 -2.916,-2.083c-0.834,-0.834 -1.667,-2.084 -2.084,-2.917c-0.416,-1.25 -0.833,-2.5 -0.833,-3.75l0,-14.583l3.333,-0l0,14.583c0,0.833 0,2.083 0.417,2.917c0.417,0.833 0.833,1.666 1.25,2.083c0.417,0.417 1.25,1.25 2.083,1.25c0.834,0 2.5,0.417 3.334,0.417m41.666,-21.667l0,2.917l-7.5,-0l0,21.25l-3.333,-0l0,-21.25l-7.917,-0l0,-2.917m44.584,3.75l-0.834,0.417c0,-0 -0.416,-0 -0.833,-0.417c-0.417,0 -0.417,-0.417 -0.833,-0.833c-0.417,-0.417 -0.834,-0.417 -1.25,-0.834c-0.417,0 -1.25,-0.416 -2.084,-0.416c-0.833,-0 -1.25,-0 -2.083,0.416c-0.417,0 -0.833,0.417 -1.25,0.834c-0.417,0.416 -0.833,0.833 -0.833,1.25c-0,0.416 -0.417,0.833 -0.417,1.666c0,0.834 0,1.25 0.417,1.667l1.25,1.25c0.416,0.417 1.25,0.417 1.666,0.833c0.834,0.417 1.25,0.417 2.084,0.834c0.833,0.416 1.25,0.416 2.083,0.833c0.833,0.417 1.25,0.833 1.667,1.25c0.416,0.417 0.833,1.25 1.25,1.667c0.416,0.833 0.416,1.666 0.416,2.5c0,1.25 0,2.083 -0.416,2.916c-0.417,0.834 -0.834,1.667 -1.667,2.5c-0.833,0.834 -1.667,1.25 -2.5,1.667c-0.833,0.417 -2.083,0.417 -3.333,0.417c-1.667,-0 -2.917,-0.417 -4.167,-0.834c-1.25,-0.416 -2.5,-1.25 -3.333,-2.5l0.833,-1.666c0,-0 0,-0.417 0.417,-0.417l0.416,0c0.417,0 0.417,0 0.834,0.417c0.416,0.416 0.833,0.416 1.25,0.833c0.416,0.417 0.833,0.417 1.666,0.833c0.834,0.417 1.25,0.417 2.5,0.417c0.834,0 1.667,0 2.084,-0.417c0.416,-0.416 1.25,-0.416 1.666,-0.833c0.417,-0.417 0.834,-0.833 0.834,-1.25c0.416,-0.417 0.416,-1.25 0.416,-1.667c0,-0.833 0,-1.25 -0.416,-1.666l-1.25,-1.25c-0.417,-0.417 -1.25,-0.417 -1.667,-0.834c-0.833,-0.416 -1.25,-0.416 -2.083,-0.833c-0.834,-0.417 -1.25,-0.417 -2.084,-0.833c-0.833,-0.417 -1.25,-0.834 -1.666,-1.25c-0.417,-0.417 -0.834,-1.25 -1.25,-1.667c-0.417,-0.833 -0.417,-1.667 -0.417,-2.5c0,-0.833 0,-1.667 0.417,-2.5c0.416,-0.833 0.833,-1.667 1.25,-2.083c0.833,-0.417 1.25,-1.25 2.5,-1.667c0.833,-0.417 2.083,-0.417 3.333,-0.417c1.25,0 2.5,0.417 3.75,0.834c1.25,0.416 2.083,1.25 2.917,1.666l-1.25,1.667Zm32.5,15.417c-0,-0 0.416,-0 0.416,0.416l1.25,1.25c-0.833,1.25 -2.083,2.084 -3.75,2.5c-1.25,0.834 -2.916,0.834 -5,0.834c-1.666,-0 -3.333,-0.417 -4.583,-0.834c-1.25,-0.416 -2.5,-1.25 -3.75,-2.5l-2.5,-3.75c-0.417,-1.666 -0.833,-3.333 -0.833,-5c-0,-1.666 0.416,-3.333 0.833,-5c0.417,-1.666 1.25,-2.916 2.5,-3.75c1.25,-1.25 2.5,-2.083 3.75,-2.5c1.667,-0.416 3.333,-0.833 5,-0.833c1.667,0 3.333,0.417 4.583,0.833c1.25,0.417 2.5,1.25 3.334,2.084l-1.25,1.666c-0,0 -0,0.417 -0.417,0.417l-0.833,0l-0.417,-0.417c-0.417,0 -0.417,-0.416 -0.833,-0.416c-0.417,-0 -0.834,-0.417 -1.25,-0.417c-0.417,0 -0.834,-0.417 -1.25,-0.417l-2.084,0c-1.25,0 -2.5,0.417 -3.75,0.834c-1.25,0.416 -2.083,1.25 -2.916,2.083c-0.834,0.833 -1.25,1.667 -1.667,2.917c-0.417,1.25 -0.833,2.5 -0.833,4.166c-0,1.667 0.416,2.917 0.833,4.167c0.417,1.25 0.833,2.083 1.667,2.917c0.833,0.833 1.666,1.25 2.5,1.666c0.833,0.417 2.083,0.834 3.333,0.834l2.083,-0c0.417,-0 1.25,-0.417 1.667,-0.417c0.417,0 0.833,-0.417 1.25,-0.833c0.417,-0.417 0.833,-0.417 1.25,-0.834l1.667,-1.666m35.833,5l-3.333,-0l-0,-10.834l-12.917,0l0,10.834l-3.333,-0l-0,-24.167l3.333,0l0,10.833l12.917,0l-0,-10.833l3.333,0m19.167,21.667l10.416,-0l0,2.5l-13.75,-0l0,-24.167l3.334,0m43.75,24.167l-2.5,-0c-0.417,-0 -0.417,-0 -0.834,-0.417l-0.416,-0.417l-2.084,-5.833l-10.833,0l-2.083,5.833l-0.417,0.417c0,0 -0.417,0.417 -0.833,0.417l-2.5,-0l9.583,-24.167l3.333,0l9.584,24.167Zm-15.834,-8.75l9.167,-0l-3.75,-10c-0.417,-0.417 -0.417,-1.25 -0.833,-2.084c-0,0.417 -0.417,0.834 -0.417,1.25c0,0.417 -0.417,0.834 -0.417,0.834l-3.75,10Zm31.25,-15l0.417,0.416l14.167,18.334l-0,-18.75l2.916,-0l0,23.75l-2.916,-0l-0.417,-0.417l-14.167,-18.333l0,18.75l-2.916,-0l-0,-24.167l1.666,0c0.834,0 1.25,0 1.25,0.417m54.167,11.666c0,1.667 -0.417,3.334 -0.833,5c-0.417,1.667 -1.25,2.917 -2.5,3.75c-1.25,1.25 -2.5,1.667 -3.75,2.5c-1.667,0.417 -2.917,0.834 -5,0.834l-9.167,-0l0,-24.167l9.167,0c1.666,0 3.333,0.417 5,0.833c1.666,0.417 2.916,1.25 3.75,2.5c1.25,1.25 1.666,2.5 2.5,3.75c0.416,1.667 0.833,3.334 0.833,5m-3.75,0c0,-1.666 0,-2.916 -0.417,-4.166c-0.416,-1.25 -0.833,-2.084 -1.666,-2.917c-0.834,-0.833 -1.667,-1.25 -2.5,-1.667c-1.25,-0.416 -2.084,-0.833 -3.334,-0.833l-6.25,0l0,18.75l5.834,0c1.25,0 2.5,-0.417 3.333,-0.833c1.25,-0.417 2.083,-1.25 2.5,-1.667c0.833,-0.833 1.25,-1.667 1.667,-2.917c0.833,-0.833 0.833,-2.083 0.833,-3.75" style="fill:#fff;fill-rule:nonzero;"/></svg>