<?xml version="1.0" encoding="UTF-8" standalone="no"?><!DOCTYPE svg PUBLIC "-//W3C//DTD SVG 1.1//EN" "http://www.w3.org/Graphics/SVG/1.1/DTD/svg11.dtd"><svg width="100%" height="100%" viewBox="0 0 834 834" version="1.1" xmlns="http://www.w3.org/2000/svg" xmlns:xlink="http://www.w3.org/1999/xlink" xml:space="preserve" xmlns:serif="http://www.serif.com/" style="fill-rule:evenodd;clip-rule:evenodd;stroke-linejoin:round;stroke-miterlimit:2;"><g id="XMLID_135_"><path id="XMLID_2258_" d="M317.083,303.75l0,192.5c0,17.083 13.75,30.833 30.834,30.833l137.083,0c17.083,0 30.833,-13.75 30.833,-30.833l0,-141.667c0,-8.333 -3.333,-16.25 -9.166,-22.083l-50.834,-50.833c-5.833,-5.834 -13.75,-9.167 -22.083,-9.167l-85.417,0c-17.083,0.417 -31.25,14.167 -31.25,31.25Zm127.917,-10.417l50.833,50.834c2.917,2.916 4.167,6.666 4.167,10.416l0,141.667c0,8.333 -6.667,15 -15,15l-136.667,0c-8.333,0 -15,-6.667 -15,-15l0,-192.5c0,-8.333 6.667,-15 15,-15l86.25,0c3.75,0 7.5,1.667 10.417,4.583Z" style="fill:#b10dc9;fill-rule:nonzero;"/><rect id="XMLID_2180_" x="370.417" y="336.667" width="92.5" height="16.25" style="fill:#b10dc9;"/><rect id="XMLID_2171_" x="370.417" y="392.083" width="92.5" height="16.25" style="fill:#b10dc9;"/><rect id="XMLID_1695_" x="370.417" y="447.083" width="92.5" height="16.25" style="fill:#b10dc9;"/><g id="XMLID_1420_" opacity="0.3"><path id="XMLID_1437_" d="M477.083,235.833c55.417,20.417 97.5,67.917 110.417,126.25l15.833,-3.333c-14.583,-65.417 -62.916,-118.75 -125.833,-139.583l0,-9.584c0,-7.916 -8.75,-12.916 -15.417,-8.75l-21.25,12.084c-6.666,3.75 -6.666,13.75 0,17.916l21.25,12.084c6.25,2.916 13.75,-0.834 15,-7.084Z" style="fill:#585763;fill-rule:nonzero;"/><path id="XMLID_1435_" d="M246.667,376.667l12.083,-21.25c3.75,-6.25 -0.417,-13.75 -7.083,-15.417c20.833,-55.417 68.333,-97.917 127.083,-110.833l-3.75,-15.834c-65.833,14.584 -119.167,63.334 -140,126.667l-9.583,-0c-7.917,-0 -12.917,8.75 -8.75,15.417l12.083,21.25c4.167,6.666 14.167,6.666 17.917,-0Z" style="fill:#585763;fill-rule:nonzero;"/><path id="XMLID_1426_" d="M403.333,570l-21.25,-12.083c-6.666,-3.75 -15.416,0.833 -15.416,8.75l-0,1.25c-60.417,-17.917 -107.084,-67.917 -120.834,-130l-15.833,3.333c15.417,69.167 68.75,124.583 136.667,142.917l-0,6.666c-0,7.917 8.75,12.917 15.416,8.75l21.25,-12.083c7.084,-3.75 7.084,-13.75 0,-17.5Z" style="fill:#585763;fill-rule:nonzero;"/><path id="XMLID_1424_" d="M616.667,445.417l-12.084,-21.25c-4.166,-6.667 -13.75,-6.667 -17.916,-0l-12.084,21.25c-3.75,6.25 0,13.75 6.667,15c-20.417,55.416 -67.917,97.5 -126.25,110.416l3.333,15.834c65.417,-14.584 118.75,-62.917 139.584,-125.834l9.583,0c8.333,0 12.917,-8.75 9.167,-15.416Z" style="fill:#585763;fill-rule:nonzero;"/></g></g></svg>