<?xml version="1.0" encoding="UTF-8" standalone="no"?><!DOCTYPE svg PUBLIC "-//W3C//DTD SVG 1.1//EN" "http://www.w3.org/Graphics/SVG/1.1/DTD/svg11.dtd"><svg width="100%" height="100%" viewBox="0 0 2585 2585" version="1.1" xmlns="http://www.w3.org/2000/svg" xmlns:xlink="http://www.w3.org/1999/xlink" xml:space="preserve" xmlns:serif="http://www.serif.com/" style="fill-rule:evenodd;clip-rule:evenodd;stroke-linejoin:bevel;stroke-miterlimit:10;"><rect id="Artboard1" x="0" y="0" width="2584.91" height="2584.91" style="fill:none;"/><g id="Graphics"><g><g><path d="M775.436,2271.02l39.167,-12.5l-2.917,-88.333l-25.833,20l-10.417,80.833Z" style="fill:#1d1d1b;fill-rule:nonzero;stroke:#1d1d1b;stroke-width:3.12px;"/><path d="M706.686,2201.85l68.75,69.166l10.417,-80.833l-62.084,-68.333l-17.083,80Z" style="fill:#e6e6dc;fill-rule:nonzero;stroke:#1d1d1b;stroke-width:3.12px;"/></g><path d="M940.436,1951.85l-291.25,-290.834l-38.75,12.084l324.583,638.333l5.417,-359.583Z" style="fill:#e6e6dc;fill-rule:nonzero;stroke:#1d1d1b;stroke-width:3.12px;"/><path d="M900.853,1964.35l-290.417,-291.25l4.167,367.5l282.083,282.916l4.167,-359.166Z" style="fill:#bf00ff;fill-rule:nonzero;stroke:#1d1d1b;stroke-width:3.12px;"/><path d="M882.936,1980.6l-255.833,-256.667l3.333,298.75l250,249.583l2.5,-291.666Z" style="fill:#e6e6dc;fill-rule:nonzero;stroke:#1d1d1b;stroke-width:3.12px;"/><path d="M896.686,2323.52l38.333,-12.083l5.417,-359.583l-39.583,12.5l-4.167,359.166Z" style="fill:#1d1d1b;fill-rule:nonzero;stroke:#1d1d1b;stroke-width:3.12px;"/></g><g><g><g><path d="M1217.1,598.937l-34.167,-34.583l1.25,-67.084l20.417,3.75l12.5,97.917Z" style="fill:#1d1d1b;fill-rule:nonzero;stroke:#1d1d1b;stroke-width:3.12px;"/><path d="M1333.77,561.854l-116.666,37.083l-12.5,-97.917l104.166,-32.083l25,92.917Z" style="fill:#e6e6dc;fill-rule:nonzero;stroke:#1d1d1b;stroke-width:3.12px;"/></g><path d="M983.353,190.187l509.166,-158.333l25.834,25.416l-539.584,492.5l4.584,-359.583Z" style="fill:#e6e6dc;fill-rule:nonzero;stroke:#1d1d1b;stroke-width:3.12px;"/><path d="M1008.77,215.187l509.584,-157.917l-11.25,360.834l-503.334,156.25l5,-359.167Z" style="fill:#bf00ff;fill-rule:nonzero;stroke:#1d1d1b;stroke-width:3.12px;"/><path d="M1026.69,232.27l470,-146.25l-7.917,315.417l-462.083,144.583l-0,-313.75Z" style="fill:#e6e6dc;fill-rule:nonzero;stroke:#1d1d1b;stroke-width:3.12px;"/><path d="M1003.77,574.354l-25,-24.584l4.584,-359.583l25.416,25l-5,359.167Z" style="fill:#1d1d1b;fill-rule:nonzero;stroke:#1d1d1b;stroke-width:3.12px;"/></g><g><path d="M1081.69,248.937l366.25,-113.75l-6.667,247.083l-359.166,111.25l-0.417,-244.583Z" style="fill:#fff;fill-rule:nonzero;stroke:#1d1d1b;stroke-width:3.12px;"/><path d="M1238.35,380.187l-115,35.417l-0,-111.667l115,-35.417l-0,111.667Z" style="fill:#1d1d1b;fill-rule:nonzero;stroke:#1d1d1b;stroke-width:3.12px;"/><g><path d="M1254.19,298.52l153.333,-46.666" style="fill:none;fill-rule:nonzero;stroke:#1d1d1b;stroke-width:3.12px;"/><path d="M1254.19,263.104l32.5,-9.584" style="fill:none;fill-rule:nonzero;stroke:#1d1d1b;stroke-width:3.12px;"/><path d="M1254.19,318.104l153.333,-46.667" style="fill:none;fill-rule:nonzero;stroke:#1d1d1b;stroke-width:3.12px;"/><path d="M1254.19,337.27l103.333,-31.666" style="fill:none;fill-rule:nonzero;stroke:#1d1d1b;stroke-width:3.12px;"/><path d="M1254.19,356.854l153.333,-46.667" style="fill:none;fill-rule:nonzero;stroke:#1d1d1b;stroke-width:3.12px;"/><path d="M1254.19,376.02l65,-21.25" style="fill:none;fill-rule:nonzero;stroke:#1d1d1b;stroke-width:3.12px;"/><path d="M1254.6,279.354l153.333,-46.667" style="fill:none;fill-rule:nonzero;stroke:#1d1d1b;stroke-width:3.12px;"/></g><path d="M1081.69,271.437l365.417,-113.75" style="fill:none;fill-rule:nonzero;stroke:#1d1d1b;stroke-width:3.12px;"/></g></g><g><g><path d="M1726.27,1146.44l0,-67.5l-210,64.167l0,68.333l210,-65Z" style="fill:#e6e6dc;fill-rule:nonzero;stroke:#1d1d1b;stroke-width:3.12px;"/><g><path d="M1537.57,1163.57c2.628,-6.129 8.193,-9.634 12.42,-7.822c4.227,1.812 5.526,8.259 2.898,14.389c-2.627,6.129 -8.192,9.634 -12.42,7.822c-4.227,-1.812 -5.526,-8.259 -2.898,-14.389Z" style="fill:#bf00ff;stroke:#1d1d1b;stroke-width:3.12px;"/></g><g><path d="M1575.41,1152.03c2.627,-6.129 8.192,-9.634 12.42,-7.822c4.227,1.812 5.526,8.259 2.898,14.389c-2.628,6.129 -8.193,9.634 -12.42,7.822c-4.227,-1.812 -5.526,-8.259 -2.898,-14.389Z" style="fill:#bf00ff;stroke:#1d1d1b;stroke-width:3.12px;"/></g><path d="M1395.85,1091.85l1.666,-68.334l118.75,119.584l0,68.333l-120.416,-119.583Z" style="fill:#bf00ff;fill-rule:nonzero;stroke:#1d1d1b;stroke-width:3.12px;"/><path d="M1397.52,1023.52l209.584,-65l119.166,120.417l-210,64.167l-118.75,-119.584Z" style="fill:#e6e6dc;fill-rule:nonzero;stroke:#1d1d1b;stroke-width:3.12px;"/></g><g><path d="M1726.27,1032.69l0,-67.917l-210,64.584l0,68.333l210,-65Z" style="fill:#bf00ff;fill-rule:nonzero;stroke:#1d1d1b;stroke-width:3.12px;"/><g><path d="M1537.65,1049.77c2.627,-6.13 8.193,-9.635 12.42,-7.823c4.227,1.812 5.526,8.26 2.898,14.389c-2.627,6.13 -8.193,9.635 -12.42,7.823c-4.227,-1.812 -5.526,-8.26 -2.898,-14.389Z" style="fill:#e6e6dc;stroke:#1d1d1b;stroke-width:3.12px;"/></g><g><path d="M1575.48,1038.24c2.628,-6.129 8.193,-9.634 12.42,-7.822c4.228,1.812 5.526,8.26 2.899,14.389c-2.628,6.13 -8.193,9.635 -12.42,7.823c-4.227,-1.813 -5.526,-8.26 -2.899,-14.39Z" style="fill:#e6e6dc;stroke:#1d1d1b;stroke-width:3.12px;"/></g><path d="M1395.85,977.687l1.666,-67.917l118.75,119.584l0,68.333l-120.416,-120Z" style="fill:#e6e6dc;fill-rule:nonzero;stroke:#1d1d1b;stroke-width:3.12px;"/><path d="M1397.52,909.77l209.584,-65l119.166,120l-210,64.584l-118.75,-119.584Z" style="fill:#e6e6dc;fill-rule:nonzero;stroke:#1d1d1b;stroke-width:3.12px;"/></g><g><path d="M1726.27,918.52l0,-67.5l-210,64.584l0,68.333l210,-65.417Z" style="fill:#e6e6dc;fill-rule:nonzero;stroke:#1d1d1b;stroke-width:3.12px;"/><g><path d="M1537.72,935.974c2.627,-6.129 8.192,-9.634 12.42,-7.822c4.227,1.812 5.526,8.26 2.898,14.389c-2.628,6.13 -8.193,9.635 -12.42,7.823c-4.227,-1.813 -5.526,-8.26 -2.898,-14.39Z" style="fill:#bf00ff;stroke:#1d1d1b;stroke-width:3.12px;"/></g><g><path d="M1575.55,924.442c2.628,-6.129 8.193,-9.635 12.42,-7.822c4.227,1.812 5.526,8.259 2.899,14.389c-2.628,6.129 -8.193,9.634 -12.42,7.822c-4.228,-1.812 -5.526,-8.26 -2.899,-14.389Z" style="fill:#bf00ff;stroke:#1d1d1b;stroke-width:3.12px;"/></g><path d="M1395.85,863.937l1.666,-67.917l118.75,119.584l0,68.333l-120.416,-120Z" style="fill:#bf00ff;fill-rule:nonzero;stroke:#1d1d1b;stroke-width:3.12px;"/><path d="M1397.52,796.02l209.584,-65l119.166,120l-210,64.584l-118.75,-119.584Z" style="fill:#e6e6dc;fill-rule:nonzero;stroke:#1d1d1b;stroke-width:3.12px;"/></g></g><g><path d="M1004.6,1241.85l208.75,209.166l-3.334,239.167l-205,-205.417l-0.416,-242.916Z" style="fill:#e6e6dc;fill-rule:nonzero;stroke:#1d1d1b;stroke-width:3.12px;"/><path d="M1094.19,1509.77l-65.417,-66.25l-0.416,-110.416l65.833,65.833l-0,110.833Z" style="fill:#1d1d1b;fill-rule:nonzero;stroke:#1d1d1b;stroke-width:3.12px;"/><g><path d="M1105.44,1445.19l85,86.25" style="fill:none;fill-rule:nonzero;stroke:#1d1d1b;stroke-width:3.12px;"/><path d="M1105.44,1410.19l16.25,16.25" style="fill:none;fill-rule:nonzero;stroke:#1d1d1b;stroke-width:3.12px;"/><path d="M1105.44,1464.35l85,86.25" style="fill:none;fill-rule:nonzero;stroke:#1d1d1b;stroke-width:3.12px;"/><path d="M1105.85,1483.52l56.25,57.084" style="fill:none;fill-rule:nonzero;stroke:#1d1d1b;stroke-width:3.12px;"/><path d="M1105.85,1502.69l85,86.25" style="fill:none;fill-rule:nonzero;stroke:#1d1d1b;stroke-width:3.12px;"/><path d="M1105.85,1522.27l34.583,33.334" style="fill:none;fill-rule:nonzero;stroke:#1d1d1b;stroke-width:3.12px;"/><path d="M1105.85,1426.44l85,85.833" style="fill:none;fill-rule:nonzero;stroke:#1d1d1b;stroke-width:3.12px;"/></g><path d="M1004.6,1264.35l208.333,208.333" style="fill:none;fill-rule:nonzero;stroke:#1d1d1b;stroke-width:3.12px;"/></g><g><path d="M681.686,2035.19l111.667,112.083l44.583,-127.083l-110.417,-111.667l-45.833,126.667Z" style="fill:#bf00ff;fill-rule:nonzero;stroke:#1d1d1b;stroke-width:3.12px;"/><path d="M673.353,1916.44l19.166,19.167l-2.916,-15.417l37.083,37.083l2.083,15l55.834,56.25l8.75,118.75l-111.667,-112.083l-8.333,-118.75Z" style="fill:#fff;fill-rule:nonzero;stroke:#1d1d1b;stroke-width:3.12px;"/></g><g><path d="M1812.52,1801.85c-9.166,-6.667 -22.5,-12.084 -34.583,-14.167c-2.917,-0.417 -17.917,-19.167 -17.917,-19.167l-23.75,-21.666c-19.583,-13.75 -47.916,-11.25 -73.333,9.166c-12.5,10 -22.083,22.917 -29.167,36.667c-37.083,-32.917 -95.833,-30.417 -147.916,11.25c-59.167,47.5 -89.584,130 -75.417,195c-8.333,2.917 -17.083,7.5 -25.417,14.167c-34.583,27.916 -45.416,81.666 -30.416,116.666l33.75,39.167l472.916,-325l-48.75,-42.083Z" style="fill:#bf00ff;fill-rule:nonzero;stroke:#1d1d1b;stroke-width:3.12px;"/><g><path d="M1410.44,1998.94l24.583,22.917" style="fill:none;fill-rule:nonzero;stroke:#1d1d1b;stroke-width:3.12px;"/><path d="M1633.77,1792.69l19.584,18.333" style="fill:none;fill-rule:nonzero;stroke:#1d1d1b;stroke-width:3.12px;"/></g><path d="M1814.19,2058.94c67.083,-47.917 80,-147.083 58.75,-195.417c-15.833,-36.666 -50.417,-51.25 -87.5,-42.083c-0,-10.417 -2.083,-20 -5.833,-29.167c-15.417,-35 -55.834,-40.833 -90.417,-12.916c-12.5,10 -22.083,22.916 -29.167,36.666c-37.083,-32.916 -95.833,-30.416 -147.916,11.25c-59.167,47.5 -89.584,130 -75.417,195c-8.333,2.917 -17.083,7.5 -25.417,14.167c-34.583,27.917 -50.416,79.167 -35.416,114.167c8.75,20 25.416,30.416 44.583,30.416l393.75,-122.083Z" style="fill:#e6e6dc;fill-rule:nonzero;stroke:#1d1d1b;stroke-width:3.12px;"/></g><g><path d="M1748.35,2029.77l-197.917,61.25l-45,-128.333l197.917,-61.25l45,128.333Z" style="fill:#bf00ff;fill-rule:nonzero;stroke:#1d1d1b;stroke-width:3.12px;"/><path d="M1762.1,1910.19l-114.584,35.417l2.917,-13.75l-59.167,18.333l-1.25,13.75l-27.083,8.75l-12.5,118.333l197.917,-61.25l13.75,-119.583Z" style="fill:#fff;fill-rule:nonzero;stroke:#1d1d1b;stroke-width:3.12px;"/></g><path d="M1417.52,2156.44c-8.333,-1.25 -14.583,-6.25 -18.75,-15.417c-10.833,-24.583 2.5,-64.166 27.917,-84.583c5.833,-4.583 11.667,-7.917 17.5,-10l21.25,-7.083l-4.583,-21.667c-12.5,-56.25 16.25,-129.583 66.666,-170c22.917,-18.333 47.917,-28.333 71.25,-28.333c17.084,-0 32.5,5.833 44.584,16.25l24.166,21.666l14.584,-29.166c5.833,-11.25 13.333,-21.25 22.5,-28.334c9.583,-7.916 20.416,-12.083 29.583,-12.083c10.417,-0 17.917,5.417 22.5,15.417c2.5,5.416 3.75,12.083 3.75,19.166l0.417,31.667l30.833,-7.5c5,-1.25 10,-2.083 15,-2.083c19.583,-0 35,10.416 43.333,29.583c16.667,38.75 6.25,122.083 -47.5,162.917l-385,119.583Z" style="fill:none;fill-rule:nonzero;"/><g><path d="M1456.27,1982.56c0.997,-2.325 3.179,-3.624 4.87,-2.899c1.69,0.725 2.254,3.201 1.257,5.526c-0.996,2.325 -3.178,3.624 -4.869,2.899c-1.691,-0.725 -2.255,-3.201 -1.258,-5.526Z" style="fill:#1d1d1b;"/></g><g><path d="M1674.83,1838.38c0.996,-2.325 3.178,-3.624 4.869,-2.899c1.691,0.725 2.255,3.201 1.258,5.526c-0.997,2.325 -3.179,3.624 -4.869,2.899c-1.691,-0.725 -2.255,-3.201 -1.258,-5.526Z" style="fill:#1d1d1b;"/></g><g><path d="M1496.78,1874.77c0.996,-2.325 3.178,-3.624 4.869,-2.899c1.691,0.725 2.255,3.201 1.258,5.526c-0.997,2.325 -3.179,3.624 -4.87,2.899c-1.69,-0.725 -2.254,-3.201 -1.257,-5.526Z" style="fill:#1d1d1b;"/></g></g><g id="Linien"><path d="M1081.69,248.937l315.833,547.083" style="fill:none;fill-rule:nonzero;stroke:#1d1d1b;stroke-width:3.12px;"/><path d="M1082.1,493.52l315.416,302.5" style="fill:none;fill-rule:nonzero;stroke:#1d1d1b;stroke-width:3.12px;"/><path d="M1122.94,1360.6l273.333,-270" style="fill:none;fill-rule:nonzero;stroke:#1d1d1b;stroke-width:3.12px;stroke-dasharray:8.33,8.33;"/><path d="M1004.6,1241.85l391.666,-151.25" style="fill:none;fill-rule:nonzero;stroke:#1d1d1b;stroke-width:3.12px;"/><path d="M1213.35,1451.02l302.916,-239.583" style="fill:none;fill-rule:nonzero;stroke:#1d1d1b;stroke-width:3.12px;"/><path d="M841.269,1938.94l-56.666,89.583" style="fill:none;fill-rule:nonzero;stroke:#1d1d1b;stroke-width:3.12px;"/><path d="M1210.02,1451.02l-335.416,435.417" style="fill:none;fill-rule:nonzero;stroke:#1d1d1b;stroke-width:3.12px;"/><path d="M1210.02,1690.19l305.834,-480" style="fill:none;fill-rule:nonzero;stroke:#1d1d1b;stroke-width:3.12px;"/><path d="M1447.94,135.187l159.167,595.833" style="fill:none;fill-rule:nonzero;stroke:#1d1d1b;stroke-width:3.12px;"/><g><g><path d="M1441.27,382.27l1.667,3.75" style="fill:none;fill-rule:nonzero;stroke:#1d1d1b;stroke-width:3.12px;stroke-miterlimit:4;"/><path d="M1446.69,393.52l157.083,330" style="fill:none;fill-rule:nonzero;stroke:#1d1d1b;stroke-width:3.12px;stroke-miterlimit:4;stroke-dasharray:8.39,8.39;"/><path d="M1605.44,727.27l1.667,3.75" style="fill:none;fill-rule:nonzero;stroke:#1d1d1b;stroke-width:3.12px;stroke-miterlimit:4;"/></g></g><path d="M764.603,1861.85l-42.917,90" style="fill:none;fill-rule:nonzero;stroke:#1d1d1b;stroke-width:3.12px;stroke-dasharray:8.33,8.33;"/><path d="M1005.02,1484.77l-212.916,319.167" style="fill:none;fill-rule:nonzero;stroke:#1d1d1b;stroke-width:3.12px;stroke-dasharray:8.33,8.33;"/><path d="M1498.77,1876.85l64.167,95.833" style="fill:none;fill-rule:nonzero;stroke:#1d1d1b;stroke-width:3.12px;"/><path d="M1213.35,1451.02l250.416,373.75" style="fill:none;fill-rule:nonzero;stroke:#1d1d1b;stroke-width:3.12px;"/><path d="M881.269,2034.77l-87.916,112.5" style="fill:none;fill-rule:nonzero;stroke:#1d1d1b;stroke-width:3.12px;"/><path d="M1210.02,1690.19l-270,269.167" style="fill:none;fill-rule:nonzero;stroke:#1d1d1b;stroke-width:3.12px;"/><path d="M715.019,1812.27l-41.666,104.167" style="fill:none;fill-rule:nonzero;stroke:#1d1d1b;stroke-width:3.12px;"/><path d="M1005.02,1241.85l-265.416,509.583" style="fill:none;fill-rule:nonzero;stroke:#1d1d1b;stroke-width:3.12px;"/><path d="M1676.69,1838.94l85.417,71.25" style="fill:none;fill-rule:nonzero;stroke:#1d1d1b;stroke-width:3.12px;"/><path d="M1213.35,1451.02l385.416,322.5" style="fill:none;fill-rule:nonzero;stroke:#1d1d1b;stroke-width:3.12px;"/><path d="M1501.27,1873.94l95.834,60.417" style="fill:none;fill-rule:nonzero;stroke:#1d1d1b;stroke-width:3.12px;stroke-dasharray:8.33,8.33;"/><path d="M1210.02,1690.19l240,151.667" style="fill:none;fill-rule:nonzero;stroke:#1d1d1b;stroke-width:3.12px;stroke-dasharray:8.33,8.33;"/><path d="M1458.35,1982.69l92.083,108.333" style="fill:none;fill-rule:nonzero;stroke:#1d1d1b;stroke-width:3.12px;"/><path d="M1210.02,1690.19l201.25,237.083" style="fill:none;fill-rule:nonzero;stroke:#1d1d1b;stroke-width:3.12px;"/></g><g id="Beschriftung"><g><g><g transform="matrix(0.956997,-0.290099,0.290099,0.956997,-575.704,554.374)"><text x="1582.04px" y="2219.03px" style="font-family:'Roboto', 'Lucida Grande', sans-serif;font-weight:500;font-size:50px;fill:#1d1d1b;">ledger</text></g><g transform="matrix(0.956997,-0.290099,0.290099,0.956997,-594.486,563.251)"><text x="1602.59px" y="2286.81px" style="font-family:'Roboto', 'Lucida Grande', sans-serif;font-weight:500;font-size:50px;fill:#1d1d1b;">database</text></g></g></g><g><g><g transform="matrix(0.956997,-0.290099,0.290099,0.956997,-690.753,304.557)"><text x="681.888px" y="2482.17px" style="font-family:'Roboto', 'Lucida Grande', sans-serif;font-weight:500;font-size:50px;fill:#1d1d1b;">hard drive</text></g><g transform="matrix(0.956997,-0.290099,0.290099,0.956997,-709.534,313.433)"><text x="702.437px" y="2549.96px" style="font-family:'Roboto', 'Lucida Grande', sans-serif;font-weight:500;font-size:50px;fill:#1d1d1b;">local/org</text></g></g></g><g><g transform="matrix(0.956997,-0.290099,0.290099,0.956997,-399.794,497.915)"><text x="1479.56px" y="1597.45px" style="font-family:'Roboto', 'Lucida Grande', sans-serif;font-weight:500;font-size:37.5px;fill:#1d1d1b;">http</text></g><g transform="matrix(0.956997,-0.290099,0.290099,0.956997,-413.051,504.18)"><text x="1494.07px" y="1645.3px" style="font-family:'Roboto', 'Lucida Grande', sans-serif;font-weight:500;font-size:37.5px;fill:#1d1d1b;">post</text></g></g><g><g transform="matrix(0.956997,-0.290099,0.290099,0.956997,-93.0247,485.717)"><text x="1591.8px" y="556.629px" style="font-family:'Roboto', 'Lucida Grande', sans-serif;font-weight:500;font-size:37.5px;fill:#1d1d1b;">http</text></g><g transform="matrix(0.956997,-0.290099,0.290099,0.956997,-106.282,491.983)"><text x="1606.31px" y="604.479px" style="font-family:'Roboto', 'Lucida Grande', sans-serif;font-weight:500;font-size:37.5px;fill:#1d1d1b;">post</text></g></g><g><g transform="matrix(0.956997,-0.290099,0.290099,0.956997,-505.333,393.629)"><text x="1075.04px" y="1901.29px" style="font-family:'Roboto', 'Lucida Grande', sans-serif;font-weight:500;font-size:37.5px;fill:#1d1d1b;">ﬁle</text></g><g transform="matrix(0.956997,-0.290099,0.290099,0.956997,-518.59,399.894)"><text x="1089.54px" y="1949.14px" style="font-family:'Roboto', 'Lucida Grande', sans-serif;font-weight:500;font-size:37.5px;fill:#1d1d1b;">system</text></g></g><g transform="matrix(0.956997,-0.290099,0.290099,0.956997,-627.931,489.96)"><text x="1338.66px" y="2362.98px" style="font-family:'Roboto', 'Lucida Grande', sans-serif;font-weight:500;font-size:50px;fill:#1d1d1b;">cloud</text></g><g transform="matrix(0.956997,-0.290099,0.290099,0.956997,-662.681,420.129)"><text x="1085.75px" y="2445.27px" style="font-family:'Roboto', 'Lucida Grande', sans-serif;font-weight:500;font-size:50px;fill:#1d1d1b;">local</text></g><g><g transform="matrix(0.956997,-0.290099,0.290099,0.956997,-140.038,241.454)"><text x="744.4px" y="593.072px" style="font-family:'Roboto', 'Lucida Grande', sans-serif;font-weight:500;font-size:50px;fill:#1d1d1b;">browser</text></g><g transform="matrix(0.956997,-0.290099,0.290099,0.956997,-158.819,250.33)"><text x="764.948px" y="660.859px" style="font-family:'Roboto', 'Lucida Grande', sans-serif;font-weight:500;font-size:50px;fill:#1d1d1b;">ﬁrefox</text></g></g><g><g transform="matrix(0.956997,-0.290099,0.290099,0.956997,-182.748,547.598)"><text x="1755.66px" y="890.203px" style="font-family:'Roboto', 'Lucida Grande', sans-serif;font-weight:500;font-size:50px;fill:#1d1d1b;">API</text></g><g transform="matrix(0.956997,-0.290099,0.290099,0.956997,-201.529,556.474)"><text x="1776.21px" y="957.99px" style="font-family:'Roboto', 'Lucida Grande', sans-serif;font-weight:500;font-size:50px;fill:#1d1d1b;">or server</text></g></g><path d="M1293.77,2430.6l0,-138.334" style="fill:none;fill-rule:nonzero;stroke:#1d1d1b;stroke-width:3.12px;"/></g></svg>