<?xml version="1.0" encoding="UTF-8" standalone="no"?><!DOCTYPE svg PUBLIC "-//W3C//DTD SVG 1.1//EN" "http://www.w3.org/Graphics/SVG/1.1/DTD/svg11.dtd"><svg width="100%" height="100%" viewBox="0 0 2188 2188" version="1.1" xmlns="http://www.w3.org/2000/svg" xmlns:xlink="http://www.w3.org/1999/xlink" xml:space="preserve" xmlns:serif="http://www.serif.com/" style="fill-rule:evenodd;clip-rule:evenodd;stroke-linejoin:bevel;stroke-miterlimit:10;"><rect id="Artboard1" x="0" y="0" width="2187.09" height="2187.09" style="fill:none;"/><clipPath id="_clip1"><rect x="0" y="0" width="2187.09" height="2187.09"/></clipPath><g clip-path="url(#_clip1)"><g id="Graphics"><g><path d="M1288.33,196.25c-9.166,-6.667 -22.5,-12.083 -34.583,-14.167c-2.917,-0.416 -17.917,-19.166 -17.917,-19.166l-23.75,-21.667c-19.583,-13.75 -47.916,-11.25 -73.333,9.167c-12.5,10 -22.083,22.916 -29.167,36.666c-37.083,-32.916 -95.833,-30.416 -147.916,11.25c-59.167,47.5 -89.584,130 -75.417,195c-8.333,2.917 -17.083,7.5 -25.417,14.167c-34.583,27.917 -45.416,81.667 -30.416,116.667l33.75,39.166l472.916,-325l-48.75,-42.083Z" style="fill:#bf00ff;fill-rule:nonzero;stroke:#1d1d1b;stroke-width:3.13px;"/><g><path d="M885.833,392.917l25,22.916" style="fill:none;fill-rule:nonzero;stroke:#1d1d1b;stroke-width:3.13px;"/><path d="M1109.58,186.667l19.167,18.333" style="fill:none;fill-rule:nonzero;stroke:#1d1d1b;stroke-width:3.13px;"/></g><path d="M1290,452.917c67.083,-47.917 80,-147.084 58.75,-195.417c-15.833,-36.667 -50.417,-51.25 -87.5,-42.083c0,-10.417 -2.083,-20 -5.833,-29.167c-15.417,-35 -55.834,-40.833 -90.417,-12.917c-12.5,10 -22.083,22.917 -29.167,36.667c-37.083,-32.917 -95.833,-30.417 -147.916,11.25c-59.167,47.5 -89.584,130 -75.417,195c-8.333,2.917 -17.083,7.5 -25.417,14.167c-34.583,27.916 -50.416,79.166 -35.416,114.166c8.75,20 25.416,30.417 44.583,30.417l393.75,-122.083Z" style="fill:#e6e6dc;fill-rule:nonzero;stroke:#1d1d1b;stroke-width:3.13px;"/></g><path d="M415.833,696.667l666.667,695" style="fill:none;fill-rule:nonzero;stroke:#1d1d1b;stroke-width:3.13px;stroke-dasharray:8.33,8.33;"/><g><g><path d="M250.833,667.5l39.167,-12.5l-2.917,-88.75l-25.833,20.417l-10.417,80.833Z" style="fill:#1d1d1b;fill-rule:nonzero;stroke:#1d1d1b;stroke-width:3.13px;"/><path d="M182.083,598.333l68.75,69.167l10.417,-80.833l-62.083,-68.75l-17.084,80.416Z" style="fill:#e6e6dc;fill-rule:nonzero;stroke:#1d1d1b;stroke-width:3.13px;"/></g><path d="M415.833,348.333l-291.25,-291.25l-38.75,12.5l324.584,638.334l5.416,-359.584Z" style="fill:#e6e6dc;fill-rule:nonzero;stroke:#1d1d1b;stroke-width:3.13px;"/><path d="M376.25,360.833l-290.417,-291.25l4.167,367.5l281.667,282.917l4.583,-359.167Z" style="fill:#bf00ff;fill-rule:nonzero;stroke:#1d1d1b;stroke-width:3.13px;"/><path d="M358.333,376.667l-255.833,-256.667l3.333,299.167l250,249.583l2.5,-292.083Z" style="fill:#e6e6dc;fill-rule:nonzero;stroke:#1d1d1b;stroke-width:3.13px;"/><path d="M371.667,720l38.75,-12.083l5.416,-359.584l-39.583,12.5l-4.583,359.167Z" style="fill:#1d1d1b;fill-rule:nonzero;stroke:#1d1d1b;stroke-width:3.13px;"/></g><g><path d="M157.083,431.667l111.667,111.666l44.583,-126.666l-110.416,-111.667l-45.834,126.667Z" style="fill:#bf00ff;fill-rule:nonzero;stroke:#1d1d1b;stroke-width:3.13px;"/><path d="M148.75,312.5l19.167,19.167l-2.917,-15.417l37.083,37.083l2.084,15l55.833,56.25l8.75,118.75l-111.667,-111.666l-8.333,-119.167Z" style="fill:#fff;fill-rule:nonzero;stroke:#1d1d1b;stroke-width:3.13px;"/></g><g><path d="M1223.75,426.25l-197.917,61.25l-45,-128.333l197.917,-61.667l45,128.75Z" style="fill:#bf00ff;fill-rule:nonzero;stroke:#1d1d1b;stroke-width:3.13px;"/><path d="M1237.5,306.667l-114.583,35.416l2.916,-13.75l-59.166,18.334l-1.25,13.333l-27.084,8.75l-12.5,118.75l197.917,-61.25l13.75,-119.583Z" style="fill:#fff;fill-rule:nonzero;stroke:#1d1d1b;stroke-width:3.13px;"/></g><g><g><g><g><path d="M72.5,1513.75l0,-4.167l4.167,-1.25" style="fill:none;fill-rule:nonzero;stroke:#bf00ff;stroke-width:2.95px;stroke-linejoin:miter;"/><path d="M84.167,1505.83l450.416,-140.416" style="fill:none;fill-rule:nonzero;stroke:#bf00ff;stroke-width:2.95px;stroke-linejoin:miter;stroke-dasharray:8.2,8.2;"/><path d="M538.75,1364.58l3.75,-1.25l0,4.167" style="fill:none;fill-rule:nonzero;stroke:#bf00ff;stroke-width:2.95px;stroke-linejoin:miter;"/><path d="M542.083,1375.83l-9.166,295.417" style="fill:none;fill-rule:nonzero;stroke:#bf00ff;stroke-width:2.95px;stroke-linejoin:miter;stroke-dasharray:8.33,8.33;"/><path d="M532.5,1675.42l0,4.166l-4.167,0.834" style="fill:none;fill-rule:nonzero;stroke:#bf00ff;stroke-width:2.95px;stroke-linejoin:miter;"/><path d="M520.417,1682.92l-440,137.5" style="fill:none;fill-rule:nonzero;stroke:#bf00ff;stroke-width:2.95px;stroke-linejoin:miter;stroke-dasharray:8.31,8.31;"/><path d="M76.667,1821.67l-4.167,1.25l0,-4.167" style="fill:none;fill-rule:nonzero;stroke:#bf00ff;stroke-width:2.95px;stroke-linejoin:miter;"/><path d="M72.5,1810.42l0,-292.917" style="fill:none;fill-rule:nonzero;stroke:#bf00ff;stroke-width:2.95px;stroke-linejoin:miter;stroke-dasharray:8.25,8.25;"/></g></g></g><g><path d="M127.917,1525.83l366.25,-113.333l-7.084,246.667l-359.166,111.666l-0,-245Z" style="fill:#e6e6dc;fill-rule:nonzero;stroke:#1d1d1b;stroke-width:2.95px;"/><path d="M284.583,1657.5l-115.416,35.417l-0,-111.667l115.416,-35.417l0,111.667Z" style="fill:#1d1d1b;fill-rule:nonzero;stroke:#1d1d1b;stroke-width:2.95px;"/><g><path d="M300.417,1575.42l153.333,-46.25" style="fill:none;fill-rule:nonzero;stroke:#1d1d1b;stroke-width:2.95px;"/><path d="M300,1540.42l32.5,-10" style="fill:none;fill-rule:nonzero;stroke:#1d1d1b;stroke-width:2.95px;"/><path d="M300,1595.42l153.75,-47.084" style="fill:none;fill-rule:nonzero;stroke:#1d1d1b;stroke-width:2.95px;"/><path d="M300.417,1614.58l103.333,-31.666" style="fill:none;fill-rule:nonzero;stroke:#1d1d1b;stroke-width:2.95px;"/><path d="M300.417,1633.75l153.333,-46.667" style="fill:none;fill-rule:nonzero;stroke:#1d1d1b;stroke-width:2.95px;"/><path d="M300.417,1653.33l64.583,-21.666" style="fill:none;fill-rule:nonzero;stroke:#1d1d1b;stroke-width:2.95px;"/><path d="M300.417,1556.67l153.75,-47.084" style="fill:none;fill-rule:nonzero;stroke:#1d1d1b;stroke-width:2.95px;"/></g><path d="M127.917,1548.75l365.416,-114.167" style="fill:none;fill-rule:nonzero;stroke:#1d1d1b;stroke-width:2.95px;"/></g><g><path d="M532.917,1705.83l-0,-52.5" style="fill:none;fill-rule:nonzero;stroke:#bf00ff;stroke-width:2.95px;stroke-linejoin:miter;"/><path d="M507.5,1687.5l51.25,-15.833" style="fill:none;fill-rule:nonzero;stroke:#bf00ff;stroke-width:2.95px;stroke-linejoin:miter;"/><path d="M523.347,1671.86c5.949,-7.314 15.124,-9.719 20.477,-5.365c5.352,4.353 4.867,13.826 -1.082,21.14c-5.95,7.315 -15.125,9.719 -20.477,5.366c-5.353,-4.353 -4.868,-13.826 1.082,-21.141Z" style="fill:none;stroke:#bf00ff;stroke-width:2.95px;stroke-linejoin:miter;"/></g></g><path d="M1084.17,1111.67l-769.584,241.25" style="fill:none;fill-rule:nonzero;stroke:#1d1d1b;stroke-width:3.13px;"/><g><path d="M740,1696.25l185.833,186.667l74.584,-211.667l-184.167,-186.25l-76.25,211.25Z" style="fill:#bf00ff;fill-rule:nonzero;stroke:#1d1d1b;stroke-width:3.54px;"/><g><path d="M748.333,1303.33l191.25,190l-4.166,268.334l-186.25,-189.584l-0.834,-268.75Z" style="fill:#e6e6dc;fill-rule:nonzero;stroke:#1d1d1b;stroke-width:3.54px;"/><path d="M837.083,1606.25l-60,-60.833l0,-132.5l60,60.416l0,132.917Z" style="fill:#1d1d1b;fill-rule:nonzero;stroke:#1d1d1b;stroke-width:3.54px;"/><g><path d="M850.833,1528.75l61.25,62.5" style="fill:none;fill-rule:nonzero;stroke:#1d1d1b;stroke-width:3.54px;"/><path d="M850.833,1486.67l19.167,19.583" style="fill:none;fill-rule:nonzero;stroke:#1d1d1b;stroke-width:3.54px;"/><path d="M850.833,1551.67l61.25,62.5" style="fill:none;fill-rule:nonzero;stroke:#1d1d1b;stroke-width:3.54px;"/><path d="M850.833,1575l27.084,27.5" style="fill:none;fill-rule:nonzero;stroke:#1d1d1b;stroke-width:3.54px;"/><path d="M850.833,1597.92l61.25,62.5" style="fill:none;fill-rule:nonzero;stroke:#1d1d1b;stroke-width:3.54px;"/><path d="M850.833,1620.83l0.834,-0.833" style="fill:none;fill-rule:nonzero;stroke:#1d1d1b;stroke-width:3.54px;"/><path d="M850.833,1506.25l61.667,62.083" style="fill:none;fill-rule:nonzero;stroke:#1d1d1b;stroke-width:3.54px;"/></g><path d="M748.75,1330.42l190.417,190.416" style="fill:none;fill-rule:nonzero;stroke:#1d1d1b;stroke-width:3.54px;"/></g><path d="M725.833,1497.92l31.667,32.083l0,-21.667l57.5,57.5l3.333,25l93.334,93.75l14.166,198.334l-185.833,-186.667l-14.167,-198.333Z" style="fill:#e6e6dc;fill-rule:nonzero;stroke:#1d1d1b;stroke-width:3.54px;"/></g><g><path d="M967.083,1271.25l184.167,-56.667l166.25,168.334l-184.167,55.833l-166.25,-167.5Z" style="fill:#e6e6dc;fill-rule:nonzero;stroke:#1d1d1b;stroke-width:4.13px;"/><g><path d="M1085.83,1215l-55,17.083l0,-14.166l55,-17.084l0,14.167Z" style="fill:#bf00ff;fill-rule:nonzero;stroke:#1d1d1b;stroke-width:4.13px;"/><path d="M1156.67,1398.33l2.083,-205.833l-146.667,45.417l-2.083,205.416l146.667,-45Z" style="fill:#e6e6dc;fill-rule:nonzero;stroke:#1d1d1b;stroke-width:4.13px;"/></g><g><path d="M1123.33,1173.75l-55,17.083l0,-14.166l55,-17.084l0,14.167Z" style="fill:#bf00ff;fill-rule:nonzero;stroke:#1d1d1b;stroke-width:4.13px;"/><path d="M1193.75,1403.75l2.083,-252.5l-146.25,45.417l-2.083,252.083l146.25,-45Z" style="fill:#fff;fill-rule:nonzero;stroke:#1d1d1b;stroke-width:4.13px;"/></g><g><path d="M1158.75,1287.92l-55,17.083l0,-14.583l55,-17.084l0,14.584Z" style="fill:#bf00ff;fill-rule:nonzero;stroke:#1d1d1b;stroke-width:4.13px;"/><path d="M1229.17,1471.25l2.083,-206.25l-146.25,45.833l-2.5,205.417l146.667,-45Z" style="fill:#e6e6dc;fill-rule:nonzero;stroke:#1d1d1b;stroke-width:4.13px;"/></g><g><path d="M1193.33,1324.17l-55,17.083l0,-14.167l55,-17.083l0,14.167Z" style="fill:#bf00ff;fill-rule:nonzero;stroke:#1d1d1b;stroke-width:4.13px;"/><path d="M1264.17,1507.5l2.083,-205.833l-146.667,45.416l-2.083,205.417l146.667,-45Z" style="fill:#e6e6dc;fill-rule:nonzero;stroke:#1d1d1b;stroke-width:4.13px;"/></g><path d="M1317.5,1523.75l0,-140.833l-184.167,55.833l0,141.667l184.167,-56.667Z" style="fill:#e6e6dc;fill-rule:nonzero;stroke:#1d1d1b;stroke-width:4.13px;"/><path d="M965,1412.5l2.083,-141.25l166.25,167.5l0,141.667l-168.333,-167.917Z" style="fill:#1d1d1b;fill-rule:nonzero;stroke:#1d1d1b;stroke-width:4.13px;"/><path d="M1257.5,1461.67l-54.583,17.083l-0,-14.167l54.583,-17.083l0,14.167Z" style="fill:#bf00ff;fill-rule:nonzero;stroke:#1d1d1b;stroke-width:4.13px;"/></g><g><g><path d="M1591.25,699.583l208.75,209.584l-3.75,239.166l-68.333,-68.75l-57.917,-58.333l-78.333,-78.333l-0.417,-243.334Z" style="fill:#e6e6dc;fill-rule:nonzero;stroke:#1d1d1b;stroke-width:2.95px;"/><path d="M1680.83,967.917l-65.833,-66.25l0,-110.834l65.833,66.25l0,110.834Z" style="fill:#1d1d1b;fill-rule:nonzero;stroke:#1d1d1b;stroke-width:2.95px;"/><g><path d="M1692.08,902.917l85,86.25" style="fill:none;fill-rule:nonzero;stroke:#1d1d1b;stroke-width:2.95px;"/><path d="M1692.08,867.917l15.834,16.666" style="fill:none;fill-rule:nonzero;stroke:#1d1d1b;stroke-width:2.95px;"/><path d="M1692.08,922.5l85,85.833" style="fill:none;fill-rule:nonzero;stroke:#1d1d1b;stroke-width:2.95px;"/><path d="M1692.08,941.667l56.667,57.083" style="fill:none;fill-rule:nonzero;stroke:#1d1d1b;stroke-width:2.95px;"/><path d="M1692.08,960.833l85,86.25" style="fill:none;fill-rule:nonzero;stroke:#1d1d1b;stroke-width:2.95px;"/><path d="M1692.08,980l34.584,33.333" style="fill:none;fill-rule:nonzero;stroke:#1d1d1b;stroke-width:2.95px;"/><path d="M1692.08,884.583l85.417,85.834" style="fill:none;fill-rule:nonzero;stroke:#1d1d1b;stroke-width:2.95px;"/></g><path d="M1591.25,722.083l208.333,208.75" style="fill:none;fill-rule:nonzero;stroke:#1d1d1b;stroke-width:2.95px;"/></g><g><g><path d="M1857.92,924.167c-0,23.333 -7.084,35.833 -16.25,39.166c-3.334,1.25 -30,8.75 -30,8.75l-34.584,-140c0,0 22.917,-7.916 32.5,-9.583c5,-0.833 10.417,1.25 16.25,7.083c17.5,17.5 32.084,60 32.084,94.584Z" style="fill:#1d1d1b;fill-rule:nonzero;stroke:#1d1d1b;stroke-width:4.38px;"/><path d="M1777.53,831.914c15.197,-3.686 35.148,24.71 44.525,63.372c9.377,38.662 4.652,73.043 -10.545,76.729c-15.196,3.686 -35.147,-24.71 -44.524,-63.372c-9.377,-38.662 -4.652,-73.043 10.544,-76.729Z" style="fill:#fff;stroke:#1d1d1b;stroke-width:4.37px;"/><path d="M1789.83,895.091c1.564,-0.38 3.627,2.578 4.602,6.601c0.976,4.022 0.498,7.596 -1.066,7.976c-1.565,0.379 -3.627,-2.579 -4.603,-6.601c-0.975,-4.023 -0.497,-7.597 1.067,-7.976Z" style="fill:#bf00ff;"/><path d="M1791.67,903.333l17.5,51.667" style="fill:none;fill-rule:nonzero;stroke:#bf00ff;stroke-width:3.07px;stroke-linejoin:miter;"/><path d="M1792.92,867.083l-1.25,36.25" style="fill:none;fill-rule:nonzero;stroke:#bf00ff;stroke-width:3.07px;stroke-linejoin:miter;"/></g></g><path d="M1669.53,985.83c3.799,-0.922 8.776,6.132 11.107,15.742c2.33,9.609 1.138,18.159 -2.661,19.08c-3.799,0.922 -8.776,-6.132 -11.107,-15.741c-2.33,-9.61 -1.138,-18.16 2.661,-19.081Z" style="fill:#bf00ff;"/><g><g><path d="M1618.33,1095.83l-14.583,-14.166l106.667,-33.334l14.583,13.75" style="fill:#e6e6dc;fill-rule:nonzero;stroke:#1d1d1b;stroke-width:2.95px;"/><path d="M1619.58,1202.5l-14.583,-14.583l-1.25,-106.25l14.583,14.166" style="fill:#1d1d1b;fill-rule:nonzero;stroke:#1d1d1b;stroke-width:2.95px;"/><path d="M1725,1062.08l-3.333,108.75l-102.084,31.667l-1.25,-106.667l106.667,-33.75Z" style="fill:#e6e6dc;fill-rule:nonzero;stroke:#1d1d1b;stroke-width:2.95px;"/></g><g><path d="M1687.92,1111.25c-0,-9.167 -7.084,-14.583 -16.25,-11.667c-8.75,2.5 -16.25,12.5 -16.25,21.667c-0,6.667 3.75,11.25 9.166,12.5l0,34.167l12.917,-3.75l0,-33.75c6.25,-5 10.417,-12.084 10.417,-19.167Z" style="fill:#bf00ff;fill-rule:nonzero;stroke:#1d1d1b;stroke-width:2.95px;"/><path d="M1671.67,1099.58c-0.834,0.417 -2.084,0.834 -2.917,1.25c8.75,-4.583 14.583,0.834 13.333,12.5c-0.416,4.167 -2.916,9.167 -8.75,13.75l-0.416,38.334l5,-1.667l-0,-33.75c5.833,-4.167 10,-11.667 10,-18.333c-0,-9.584 -7.5,-15 -16.25,-12.084Z" style="fill:#e6e6dc;fill-rule:nonzero;stroke:#1d1d1b;stroke-width:2.95px;"/></g><path d="M1664.58,994.167c-21.25,5.416 -33.333,24.583 -33.333,42.083l0.417,42.917l5.416,5.416l4.584,-47.916c-0,-11.25 8.75,-22.917 19.583,-26.25c10.833,-3.334 20.833,2.916 20.833,14.166l0.834,39.584l5,5l7.916,-52.5c-0.416,-17.5 -14.166,-27.917 -31.25,-22.5Z" style="fill:#1d1d1b;fill-rule:nonzero;stroke:#1d1d1b;stroke-width:2.95px;"/><path d="M1667.5,996.25c-17.083,5 -30.833,23.75 -30.833,41.667l-0,46.666l11.25,-3.333l-0,-42.917c-0,-11.25 8.75,-22.916 19.583,-26.25c10.833,-3.333 19.583,3.334 19.583,14.584l0,42.916l11.25,-3.333l0,-46.667c0.417,-18.333 -13.75,-28.333 -30.833,-23.333Z" style="fill:#e6e6dc;fill-rule:nonzero;stroke:#1d1d1b;stroke-width:2.95px;"/></g><path d="M1728.75,1021.25l-56.667,-35.417c0.417,0.417 0.834,0.834 1.667,1.25c4.583,4.167 7.917,15 7.917,23.75c-0,3.334 -0.417,5.834 -1.25,7.5l-1.25,1.667l-0,10.417l57.916,58.333l-8.333,-67.5Z" style="fill:#e6e6dc;fill-rule:nonzero;"/><path d="M1665.83,995.417c0,-8.75 3.75,-12.5 7.917,-7.917c4.167,4.583 7.917,15 7.917,23.75c-0,8.75 -3.75,12.5 -7.917,7.917c-1.667,-1.667 -3.333,-4.584 -4.583,-7.5" style="fill:none;fill-rule:nonzero;stroke:#1d1d1b;stroke-width:2.95px;"/><path d="M1662.5,1014.17l74.583,74.583" style="fill:none;fill-rule:nonzero;stroke:#1d1d1b;stroke-width:2.95px;"/></g><path d="M316.25,1330.42l769.583,-237.084l-1.666,18.334l-767.5,240l-0.417,-21.25Z" style="fill:#fff;fill-rule:nonzero;stroke:#1d1d1b;stroke-width:2.95px;"/><path d="M268.75,543.333l87.083,90.834" style="fill:none;fill-rule:nonzero;stroke:#1d1d1b;stroke-width:3.13px;stroke-dasharray:8.33,8.33;"/><path d="M268.75,543.333l17.5,935.417" style="fill:none;fill-rule:nonzero;stroke:#1d1d1b;stroke-width:3.13px;"/></g><g id="Linien"><path d="M1038.33,368.75l552.917,330.833" style="fill:none;fill-rule:nonzero;stroke:#1d1d1b;stroke-width:3.13px;"/><path d="M1025.83,487.5l565.834,455.417" style="fill:none;fill-rule:nonzero;stroke:#1d1d1b;stroke-width:3.13px;"/><path d="M1237.5,306.667l353.75,392.916" style="fill:none;fill-rule:nonzero;stroke:#1d1d1b;stroke-width:3.13px;"/><path d="M1223.75,426.25l367.917,516.667" style="fill:none;fill-rule:nonzero;stroke:#1d1d1b;stroke-width:3.13px;stroke-dasharray:8.33,8.33;"/><path d="M316.667,1332.5l-56.667,-907.917" style="fill:none;fill-rule:nonzero;stroke:#1d1d1b;stroke-width:3.13px;"/><path d="M415.833,506.25l670,587.083" style="fill:none;fill-rule:nonzero;stroke:#1d1d1b;stroke-width:3.13px;"/><path d="M313.333,416.667l44.167,38.75" style="fill:none;fill-rule:nonzero;stroke:#1d1d1b;stroke-width:3.13px;"/><path d="M747.083,1289.17l0,-72.084" style="fill:none;fill-rule:nonzero;stroke:#1d1d1b;stroke-width:3.13px;"/><path d="M316.25,1424.17l0,-72.5" style="fill:none;fill-rule:nonzero;stroke:#1d1d1b;stroke-width:3.13px;"/><path d="M1084.17,1151.25l-0,-39.583" style="fill:none;fill-rule:nonzero;stroke:#1d1d1b;stroke-width:3.13px;"/></g><g id="Beschriftung"><g><g><g transform="matrix(0.956997,-0.290099,0.290099,0.956997,-115.27,155.016)"><text x="465.23px" y="466.31px" style="font-family:'Roboto-Regular', 'Roboto';font-size:50px;fill:#1d1d1b;">har<tspan x="536.422px " y="466.31px ">d</tspan> driv<tspan x="658.151px " y="466.31px ">e</tspan></text></g><g transform="matrix(0.956997,-0.290099,0.290099,0.956997,-134.051,163.892)"><text x="485.779px" y="534.098px" style="font-family:'Roboto-Regular', 'Roboto';font-size:50px;fill:#1d1d1b;">local/or<tspan x="657.508px " y="534.098px ">g</tspan></text></g></g></g><g transform="matrix(0.956997,-0.290099,0.290099,0.956997,-234.121,442.684)"><text x="1376.1px" y="1011.03px" style="font-family:'Roboto-Regular', 'Roboto';font-size:50px;fill:#1d1d1b;">cloud</text></g><g transform="matrix(0.956997,-0.290099,0.290099,0.956997,-268.871,372.853)"><text x="1123.19px" y="1093.32px" style="font-family:'Roboto-Regular', 'Roboto';font-size:50px;fill:#1d1d1b;">local</text></g><path d="M1331.25,1078.75l0,-138.333" style="fill:none;fill-rule:nonzero;stroke:#1d1d1b;stroke-width:3.13px;"/><g><g transform="matrix(0.956997,-0.290099,0.290099,0.956997,-533.428,155.029)"><text x="256.195px" y="1876.76px" style="font-family:'Roboto-Regular', 'Roboto';font-size:50px;fill:#1d1d1b;">scr<tspan x="324.603px " y="1876.76px ">e</tspan>enshot</text></g><g transform="matrix(0.956997,-0.290099,0.290099,0.956997,-552.21,163.905)"><text x="276.744px" y="1944.55px" style="font-family:'Roboto-Regular', 'Roboto';font-size:50px;fill:#1d1d1b;">of page</text></g></g><path d="M1818.24,1429.67l-667.109,202.224l94.161,310.626l667.109,-202.224l-94.161,-310.626Z" style="fill:none;"/><g><g transform="matrix(0.956997,-0.290099,0.290099,0.956997,-435.383,409.475)"><text x="1163.46px" y="1673.28px" style="font-family:'Roboto-Regular', 'Roboto';font-size:50px;fill:#1d1d1b;">metadata</text></g><g transform="matrix(0.956997,-0.290099,0.290099,0.956997,-405.309,473.111)"><text x="1393.14px" y="1603.65px" style="font-family:'Roboto-Regular', 'Roboto';font-size:50px;fill:#1d1d1b;">about</text></g><g transform="matrix(0.956997,-0.290099,0.290099,0.956997,-454.165,418.351)"><text x="1184.01px" y="1741.07px" style="font-family:'Roboto-Regular', 'Roboto';font-size:50px;fill:#1d1d1b;">the r<tspan x="1283.2px " y="1741.07px ">e</tspan>cor<tspan x="1380.84px " y="1741.07px ">d</tspan></text></g></g><g><g><g transform="matrix(0.956997,-0.290099,0.290099,0.956997,0.436945,412.567)"><text x="1391.8px" y="204.81px" style="font-family:'Roboto-Regular', 'Roboto';font-size:50px;fill:#1d1d1b;">ledger</text></g><g transform="matrix(0.956997,-0.290099,0.290099,0.956997,-18.3445,421.443)"><text x="1412.35px" y="272.597px" style="font-family:'Roboto-Regular', 'Roboto';font-size:50px;fill:#1d1d1b;">database</text></g></g></g><path d="M1621.67,1271.25l558.333,-169.167l155,490.417l-565.417,166.25l-147.916,-487.5Z" style="fill:none;fill-rule:nonzero;"/><g><g transform="matrix(0.956997,-0.290099,0.290099,0.956997,-310.436,530.523)"><text x="1634.23px" y="1312.36px" style="font-family:'Roboto-Regular', 'Roboto';font-size:50px;fill:#1d1d1b;">unique signatur<tspan x="1977.47px " y="1312.36px ">e</tspan></text></g><g transform="matrix(0.956997,-0.290099,0.290099,0.956997,-329.218,539.4)"><text x="1654.78px" y="1380.14px" style="font-family:'Roboto-Regular', 'Roboto';font-size:50px;fill:#1d1d1b;">of each ﬁle</text></g><g transform="matrix(0.956997,-0.290099,0.290099,0.956997,-347.999,548.276)"><text x="1675.32px" y="1447.93px" style="font-family:'Roboto-Regular', 'Roboto';font-size:50px;fill:#1d1d1b;">+</text></g><g transform="matrix(0.956997,-0.290099,0.290099,0.956997,-366.78,557.152)"><text x="1695.87px" y="1515.72px" style="font-family:'Roboto-Regular', 'Roboto';font-size:50px;fill:#1d1d1b;">trusted timestamp</text></g><g transform="matrix(0.956997,-0.290099,0.290099,0.956997,-385.562,566.028)"><text x="1716.42px" y="1583.51px" style="font-family:'Roboto-Regular', 'Roboto';font-size:50px;fill:#1d1d1b;">of r<tspan x="1791.13px " y="1583.51px ">e</tspan>cor<tspan x="1888.76px " y="1583.51px ">d</tspan>s</text></g></g><path d="M1528.01,1741.38l-586.561,177.807l98.513,324.982l586.561,-177.808l-98.513,-324.981Z" style="fill:none;"/><g><g transform="matrix(0.956997,-0.290099,0.290099,0.956997,-527.651,360.983)"><text x="953.763px" y="1960.25px" style="font-family:'Roboto-Regular', 'Roboto';font-size:50px;fill:#1d1d1b;">oﬄine,</text></g><g transform="matrix(0.956997,-0.290099,0.290099,0.956997,-546.432,369.859)"><text x="974.312px" y="2028.03px" style="font-family:'Roboto-Regular', 'Roboto';font-size:50px;fill:#1d1d1b;">one-ﬁle, futur<tspan x="1264.47px " y="2028.03px ">e</tspan></text></g><g transform="matrix(0.956997,-0.290099,0.290099,0.956997,-565.213,378.735)"><text x="994.861px" y="2095.82px" style="font-family:'Roboto-Regular', 'Roboto';font-size:50px;fill:#1d1d1b;">pr<tspan x="1039.34px " y="2095.82px ">o</tspan>of H<tspan x="1161.05px " y="2095.82px ">T</tspan>ML cop<tspan x="1356.29px " y="2095.82px ">y</tspan></text></g><g transform="matrix(0.956997,-0.290099,0.290099,0.956997,-583.995,387.612)"><text x="1015.41px" y="2163.61px" style="font-family:'Roboto-Regular', 'Roboto';font-size:50px;fill:#1d1d1b;">of page</text></g></g></g></g></svg>