<?xml version="1.0" encoding="UTF-8" standalone="no"?><!DOCTYPE svg PUBLIC "-//W3C//DTD SVG 1.1//EN" "http://www.w3.org/Graphics/SVG/1.1/DTD/svg11.dtd"><svg width="100%" height="100%" viewBox="0 0 834 834" version="1.1" xmlns="http://www.w3.org/2000/svg" xmlns:xlink="http://www.w3.org/1999/xlink" xml:space="preserve" xmlns:serif="http://www.serif.com/" style="fill-rule:evenodd;clip-rule:evenodd;stroke-linejoin:round;stroke-miterlimit:2;"><g id="XMLID_149_"><g id="XMLID_2507_" opacity="0.3"><path id="XMLID_2508_" d="M511.25,600.833l-189.167,0c-20.833,0 -37.5,-17.083 -37.5,-37.5l0,-316.666c0,-20.834 17.084,-37.5 37.5,-37.5l189.167,-0c20.833,-0 37.5,17.083 37.5,37.5l0,316.666c0,20.834 -16.667,37.5 -37.5,37.5Zm-189.167,-376.666c-12.5,-0 -22.5,10 -22.5,22.5l0,316.666c0,12.5 10,22.5 22.5,22.5l189.167,0c12.5,0 22.5,-10 22.5,-22.5l0,-316.666c0,-12.5 -10,-22.5 -22.5,-22.5l-189.167,-0Z" style="fill:#585763;fill-rule:nonzero;"/></g><g id="XMLID_2503_" opacity="0.3"><path id="XMLID_2504_" d="M502.917,547.5l-172.5,0c-12.5,0 -22.5,-10 -22.5,-22.5l-0,-240c-0,-12.5 10,-22.5 22.5,-22.5l172.5,0c12.5,0 22.5,10 22.5,22.5l-0,239.583c-0,12.5 -10,22.917 -22.5,22.917Zm-172.5,-270c-4.167,0 -7.5,3.333 -7.5,7.5l-0,239.583c-0,4.167 3.333,7.5 7.5,7.5l172.5,0c4.166,0 7.5,-3.333 7.5,-7.5l-0,-239.583c-0,-4.167 -3.334,-7.5 -7.5,-7.5l-172.5,0Z" style="fill:#585763;fill-rule:nonzero;"/></g><g id="XMLID_2501_" opacity="0.3"><rect id="XMLID_2442_" x="389.583" y="560" width="53.75" height="15" style="fill:#585763;"/></g><g id="XMLID_2470_"><path id="XMLID_2441_" d="M428.333,449.167c-6.25,-6.25 -16.666,-6.25 -23.333,-0l-10.833,-10.834c12.083,-12.083 32.083,-12.083 44.583,0l-10.417,10.834Z" style="fill:#b10dc9;fill-rule:nonzero;"/></g><g id="XMLID_2468_"><path id="XMLID_2440_" d="M452.917,424.583c-20,-20 -52.5,-20 -72.5,0l-10.834,-10.833c25.834,-25.833 67.917,-25.833 93.75,0l-10.416,10.833Z" style="fill:#b10dc9;fill-rule:nonzero;"/></g><g id="XMLID_2466_"><path id="XMLID_261_" d="M355,399.167l-10.833,-10.834c40,-40 105,-40 145,0l-10.834,10.834c-33.75,-34.167 -89.583,-34.167 -123.333,-0Z" style="fill:#b10dc9;fill-rule:nonzero;"/></g></g></svg>