<?xml version="1.0" encoding="UTF-8" standalone="no"?><!DOCTYPE svg PUBLIC "-//W3C//DTD SVG 1.1//EN" "http://www.w3.org/Graphics/SVG/1.1/DTD/svg11.dtd"><svg width="100%" height="100%" viewBox="0 0 834 834" version="1.1" xmlns="http://www.w3.org/2000/svg" xmlns:xlink="http://www.w3.org/1999/xlink" xml:space="preserve" xmlns:serif="http://www.serif.com/" style="fill-rule:evenodd;clip-rule:evenodd;stroke-linejoin:round;stroke-miterlimit:2;"><g id="XMLID_81_"><path id="XMLID_2288_" d="M483.75,366.25l0,-37.5l-17.5,0l0,37.083l-21.25,0l0,-37.083l-17.5,0l0,37.083l-21.25,0l0,-37.083l-17.5,0l0,37.083l-21.25,0l0,-37.083l-17.5,0l0,37.5c-13.333,1.667 -23.333,12.917 -23.333,26.25l-0,55.417c-0,24.583 20,44.166 44.166,44.166l37.5,0l0,141.667l17.5,0l0,-141.667l37.5,0c24.584,0 44.167,-20 44.167,-44.166l0,-55.417c0,-13.75 -10.417,-25 -23.75,-26.25Zm5.833,81.667c0,14.583 -12.083,26.666 -26.666,26.666l-92.917,0c-14.583,0 -26.667,-12.083 -26.667,-26.666l0,-55.417c0,-5 4.167,-8.75 8.75,-8.75l128.334,0c5,0 8.75,4.167 8.75,8.75l0.416,55.417Z" style="fill:#585763;fill-opacity:0.3;fill-rule:nonzero;"/><g id="XMLID_2286_"><path id="XMLID_2287_" d="M549.167,299.583c-0,-30.833 -24.584,-55.833 -55,-56.666c-12.5,-31.25 -42.917,-52.5 -77.084,-52.5c-34.166,-0 -64.583,21.25 -77.083,52.5c-30.417,0.833 -55,25.833 -55,56.25c-22.5,7.916 -37.917,29.166 -37.917,53.333c0,31.25 25.417,56.25 56.25,56.25l22.917,0l0,-17.5l-22.917,0c-21.25,0 -38.75,-17.5 -38.75,-38.75c0,-18.333 13.334,-34.583 31.25,-37.917c4.584,-0.833 7.917,-5.416 7.084,-10c-0.417,-2.083 -0.417,-3.75 -0.417,-5.416c0,-21.25 17.5,-38.75 38.75,-38.75c1.25,-0 2.5,-0 4.167,0.416c4.166,0.417 8.333,-2.083 9.583,-6.25c7.5,-27.083 33.333,-46.25 61.667,-46.25c28.333,0 54.166,19.167 62.083,46.25c1.25,4.167 5,6.667 9.583,6.25c1.25,0 2.5,-0.416 4.167,-0.416c21.25,-0 38.75,17.5 38.75,38.75c0,1.666 0,3.333 -0.417,5.416c-0.833,4.584 2.5,9.167 7.084,10c17.916,3.75 31.25,19.584 31.25,37.917c-0,21.25 -17.5,38.75 -38.75,38.75l-22.917,0l0,17.5l22.917,0c31.25,0 56.25,-25.417 56.25,-56.25c-0,-23.75 -15.417,-45 -37.5,-52.917Z" style="fill:#b10dc9;fill-rule:nonzero;"/></g></g></svg>